<mxfile host="app.diagrams.net" modified="2023-06-20T12:17:34.778Z" agent="Mozilla/5.0 (Windows NT 10.0; Win64; x64) AppleWebKit/537.36 (KHTML, like Gecko) Chrome/114.0.0.0 Safari/537.36 Edg/114.0.1823.43" etag="DmHjXgqmHmEYi40aGnDP" version="21.3.7" type="device">
  <diagram name="第 1 页" id="9QGJH2rkE35aHMZpiPDd">
    <mxGraphModel dx="1379" dy="803" grid="1" gridSize="10" guides="1" tooltips="1" connect="1" arrows="1" fold="1" page="1" pageScale="1" pageWidth="827" pageHeight="1169" math="0" shadow="0">
      <root>
        <mxCell id="0" />
        <mxCell id="1" parent="0" />
        <mxCell id="JlkBKZ5nJkcB0ZHgIWBK-37" value="" style="rounded=1;whiteSpace=wrap;html=1;glass=0;arcSize=2;fillColor=#FFFBF0;strokeColor=#36393d;" vertex="1" parent="1">
          <mxGeometry x="40" y="360" width="740" height="230" as="geometry" />
        </mxCell>
        <mxCell id="IGg1r8K_b_IqUX4lt3kt-55" value="" style="group" parent="1" vertex="1" connectable="0">
          <mxGeometry x="40" y="120" width="190" height="160" as="geometry" />
        </mxCell>
        <mxCell id="IGg1r8K_b_IqUX4lt3kt-1" value="" style="rounded=1;whiteSpace=wrap;html=1;arcSize=5;fillColor=#F0FCFF;strokeColor=#36393d;" parent="IGg1r8K_b_IqUX4lt3kt-55" vertex="1">
          <mxGeometry width="190" height="160" as="geometry" />
        </mxCell>
        <mxCell id="IGg1r8K_b_IqUX4lt3kt-37" value="" style="group" parent="IGg1r8K_b_IqUX4lt3kt-55" vertex="1" connectable="0">
          <mxGeometry x="23" y="60" width="130" height="90" as="geometry" />
        </mxCell>
        <mxCell id="IGg1r8K_b_IqUX4lt3kt-38" value="" style="ellipse;whiteSpace=wrap;html=1;" parent="IGg1r8K_b_IqUX4lt3kt-37" vertex="1">
          <mxGeometry width="130" height="90" as="geometry" />
        </mxCell>
        <mxCell id="IGg1r8K_b_IqUX4lt3kt-39" value="" style="ellipse;whiteSpace=wrap;html=1;aspect=fixed;fillColor=#d5e8d4;strokeColor=#82b366;" parent="IGg1r8K_b_IqUX4lt3kt-37" vertex="1">
          <mxGeometry x="59.583333333333336" y="5.625" width="10.227272727272728" height="10.227272727272728" as="geometry" />
        </mxCell>
        <mxCell id="IGg1r8K_b_IqUX4lt3kt-40" value="" style="ellipse;whiteSpace=wrap;html=1;aspect=fixed;fillColor=#d5e8d4;strokeColor=#82b366;" parent="IGg1r8K_b_IqUX4lt3kt-37" vertex="1">
          <mxGeometry x="96.99666666666667" y="15.85" width="10.227272727272728" height="10.227272727272728" as="geometry" />
        </mxCell>
        <mxCell id="IGg1r8K_b_IqUX4lt3kt-41" value="" style="ellipse;whiteSpace=wrap;html=1;aspect=fixed;fillColor=#d5e8d4;strokeColor=#82b366;" parent="IGg1r8K_b_IqUX4lt3kt-37" vertex="1">
          <mxGeometry x="69.81333333333335" y="67.50500000000001" width="10.227272727272728" height="10.227272727272728" as="geometry" />
        </mxCell>
        <mxCell id="IGg1r8K_b_IqUX4lt3kt-42" value="" style="ellipse;whiteSpace=wrap;html=1;aspect=fixed;fillColor=#ffe6cc;strokeColor=#d79b00;" parent="IGg1r8K_b_IqUX4lt3kt-37" vertex="1">
          <mxGeometry x="113.75" y="45" width="10.227272727272728" height="10.227272727272728" as="geometry" />
        </mxCell>
        <mxCell id="IGg1r8K_b_IqUX4lt3kt-43" value="" style="ellipse;whiteSpace=wrap;html=1;aspect=fixed;fillColor=#d5e8d4;strokeColor=#82b366;" parent="IGg1r8K_b_IqUX4lt3kt-37" vertex="1">
          <mxGeometry x="26.473333333333336" y="57.28" width="10.227272727272728" height="10.227272727272728" as="geometry" />
        </mxCell>
        <mxCell id="IGg1r8K_b_IqUX4lt3kt-44" value="" style="ellipse;whiteSpace=wrap;html=1;aspect=fixed;fillColor=#f8cecc;strokeColor=#b85450;" parent="IGg1r8K_b_IqUX4lt3kt-37" vertex="1">
          <mxGeometry x="16.25" y="22.5" width="10.227272727272728" height="10.227272727272728" as="geometry" />
        </mxCell>
        <mxCell id="IGg1r8K_b_IqUX4lt3kt-45" value="" style="endArrow=none;html=1;rounded=0;exitX=0.933;exitY=0.253;exitDx=0;exitDy=0;entryX=0.031;entryY=0.628;entryDx=0;entryDy=0;exitPerimeter=0;entryPerimeter=0;dashed=1;" parent="IGg1r8K_b_IqUX4lt3kt-37" source="IGg1r8K_b_IqUX4lt3kt-44" target="IGg1r8K_b_IqUX4lt3kt-39" edge="1">
          <mxGeometry width="50" height="50" relative="1" as="geometry">
            <mxPoint x="54.16666666666667" y="56.25" as="sourcePoint" />
            <mxPoint x="81.25" y="28.125" as="targetPoint" />
          </mxGeometry>
        </mxCell>
        <mxCell id="IGg1r8K_b_IqUX4lt3kt-46" value="" style="endArrow=none;html=1;rounded=0;exitX=0.669;exitY=0.947;exitDx=0;exitDy=0;exitPerimeter=0;dashed=1;" parent="IGg1r8K_b_IqUX4lt3kt-37" source="IGg1r8K_b_IqUX4lt3kt-44" target="IGg1r8K_b_IqUX4lt3kt-43" edge="1">
          <mxGeometry width="50" height="50" relative="1" as="geometry">
            <mxPoint x="32.5" y="45" as="sourcePoint" />
            <mxPoint x="66.625" y="32.0625" as="targetPoint" />
          </mxGeometry>
        </mxCell>
        <mxCell id="IGg1r8K_b_IqUX4lt3kt-47" value="" style="endArrow=none;html=1;rounded=0;exitX=-0.022;exitY=0.628;exitDx=0;exitDy=0;exitPerimeter=0;entryX=0.963;entryY=0.691;entryDx=0;entryDy=0;entryPerimeter=0;" parent="IGg1r8K_b_IqUX4lt3kt-37" source="IGg1r8K_b_IqUX4lt3kt-41" target="IGg1r8K_b_IqUX4lt3kt-43" edge="1">
          <mxGeometry width="50" height="50" relative="1" as="geometry">
            <mxPoint x="28.708333333333336" y="38.8125" as="sourcePoint" />
            <mxPoint x="37.91666666666667" y="73.125" as="targetPoint" />
          </mxGeometry>
        </mxCell>
        <mxCell id="IGg1r8K_b_IqUX4lt3kt-48" value="" style="endArrow=none;html=1;rounded=0;exitX=0.336;exitY=0.933;exitDx=0;exitDy=0;exitPerimeter=0;entryX=1;entryY=0;entryDx=0;entryDy=0;" parent="IGg1r8K_b_IqUX4lt3kt-37" source="IGg1r8K_b_IqUX4lt3kt-40" target="IGg1r8K_b_IqUX4lt3kt-41" edge="1">
          <mxGeometry width="50" height="50" relative="1" as="geometry">
            <mxPoint x="74.75" y="74.8125" as="sourcePoint" />
            <mxPoint x="43.333333333333336" y="78.75" as="targetPoint" />
          </mxGeometry>
        </mxCell>
        <mxCell id="IGg1r8K_b_IqUX4lt3kt-50" value="" style="endArrow=none;html=1;rounded=0;exitX=0;exitY=1;exitDx=0;exitDy=0;entryX=0.794;entryY=0.058;entryDx=0;entryDy=0;entryPerimeter=0;" parent="IGg1r8K_b_IqUX4lt3kt-37" source="IGg1r8K_b_IqUX4lt3kt-40" target="IGg1r8K_b_IqUX4lt3kt-43" edge="1">
          <mxGeometry width="50" height="50" relative="1" as="geometry">
            <mxPoint x="119.16666666666667" y="54.5625" as="sourcePoint" />
            <mxPoint x="31.958333333333336" y="36" as="targetPoint" />
          </mxGeometry>
        </mxCell>
        <mxCell id="IGg1r8K_b_IqUX4lt3kt-51" value="" style="endArrow=none;html=1;rounded=0;exitX=0;exitY=0;exitDx=0;exitDy=0;entryX=1;entryY=1;entryDx=0;entryDy=0;dashed=1;" parent="IGg1r8K_b_IqUX4lt3kt-37" source="IGg1r8K_b_IqUX4lt3kt-42" target="IGg1r8K_b_IqUX4lt3kt-39" edge="1">
          <mxGeometry width="50" height="50" relative="1" as="geometry">
            <mxPoint x="93.70833333333334" y="26.4375" as="sourcePoint" />
            <mxPoint x="41.16666666666667" y="73.6875" as="targetPoint" />
          </mxGeometry>
        </mxCell>
        <mxCell id="IGg1r8K_b_IqUX4lt3kt-52" value="" style="endArrow=none;html=1;rounded=0;exitX=0.294;exitY=0.058;exitDx=0;exitDy=0;exitPerimeter=0;entryX=1;entryY=1;entryDx=0;entryDy=0;dashed=1;" parent="IGg1r8K_b_IqUX4lt3kt-37" source="IGg1r8K_b_IqUX4lt3kt-42" target="IGg1r8K_b_IqUX4lt3kt-40" edge="1">
          <mxGeometry width="50" height="50" relative="1" as="geometry">
            <mxPoint x="119.16666666666667" y="54.5625" as="sourcePoint" />
            <mxPoint x="31.958333333333336" y="36" as="targetPoint" />
          </mxGeometry>
        </mxCell>
        <mxCell id="IGg1r8K_b_IqUX4lt3kt-53" value="" style="endArrow=none;html=1;rounded=0;exitX=0.031;exitY=0.739;exitDx=0;exitDy=0;exitPerimeter=0;entryX=0.964;entryY=0.378;entryDx=0;entryDy=0;entryPerimeter=0;dashed=1;" parent="IGg1r8K_b_IqUX4lt3kt-37" source="IGg1r8K_b_IqUX4lt3kt-42" target="IGg1r8K_b_IqUX4lt3kt-41" edge="1">
          <mxGeometry width="50" height="50" relative="1" as="geometry">
            <mxPoint x="122.41666666666667" y="51.1875" as="sourcePoint" />
            <mxPoint x="101.29166666666667" y="26.4375" as="targetPoint" />
          </mxGeometry>
        </mxCell>
        <mxCell id="IGg1r8K_b_IqUX4lt3kt-276" value="" style="endArrow=none;html=1;rounded=0;entryX=0;entryY=0.406;entryDx=0;entryDy=0;entryPerimeter=0;" parent="IGg1r8K_b_IqUX4lt3kt-37" source="IGg1r8K_b_IqUX4lt3kt-39" target="IGg1r8K_b_IqUX4lt3kt-40" edge="1">
          <mxGeometry width="50" height="50" relative="1" as="geometry">
            <mxPoint x="177" y="60" as="sourcePoint" />
            <mxPoint x="227" y="10" as="targetPoint" />
          </mxGeometry>
        </mxCell>
        <mxCell id="IGg1r8K_b_IqUX4lt3kt-226" value="" style="endArrow=none;dashed=1;html=1;rounded=0;exitX=0;exitY=1;exitDx=0;exitDy=0;entryX=0.002;entryY=0.441;entryDx=0;entryDy=0;entryPerimeter=0;" parent="IGg1r8K_b_IqUX4lt3kt-55" source="IGg1r8K_b_IqUX4lt3kt-196" target="IGg1r8K_b_IqUX4lt3kt-38" edge="1">
          <mxGeometry width="50" height="50" relative="1" as="geometry">
            <mxPoint x="160" y="190" as="sourcePoint" />
            <mxPoint x="210" y="140" as="targetPoint" />
          </mxGeometry>
        </mxCell>
        <mxCell id="IGg1r8K_b_IqUX4lt3kt-227" value="" style="endArrow=none;dashed=1;html=1;rounded=0;entryX=1;entryY=1;entryDx=0;entryDy=0;exitX=1;exitY=0.5;exitDx=0;exitDy=0;" parent="IGg1r8K_b_IqUX4lt3kt-55" source="IGg1r8K_b_IqUX4lt3kt-38" target="IGg1r8K_b_IqUX4lt3kt-196" edge="1">
          <mxGeometry width="50" height="50" relative="1" as="geometry">
            <mxPoint x="150" y="120" as="sourcePoint" />
            <mxPoint x="210" y="140" as="targetPoint" />
          </mxGeometry>
        </mxCell>
        <mxCell id="IGg1r8K_b_IqUX4lt3kt-233" value="" style="group" parent="IGg1r8K_b_IqUX4lt3kt-55" vertex="1" connectable="0">
          <mxGeometry x="13" y="10" width="160" height="40" as="geometry" />
        </mxCell>
        <mxCell id="IGg1r8K_b_IqUX4lt3kt-196" value="" style="rounded=0;whiteSpace=wrap;html=1;" parent="IGg1r8K_b_IqUX4lt3kt-233" vertex="1">
          <mxGeometry width="160" height="40" as="geometry" />
        </mxCell>
        <mxCell id="IGg1r8K_b_IqUX4lt3kt-4" value="" style="whiteSpace=wrap;html=1;aspect=fixed;fillColor=#d5e8d4;strokeColor=#82b366;" parent="IGg1r8K_b_IqUX4lt3kt-233" vertex="1">
          <mxGeometry x="10" y="10" width="20" height="20" as="geometry" />
        </mxCell>
        <mxCell id="IGg1r8K_b_IqUX4lt3kt-5" value="" style="whiteSpace=wrap;html=1;aspect=fixed;fillColor=#d5e8d4;strokeColor=#82b366;" parent="IGg1r8K_b_IqUX4lt3kt-233" vertex="1">
          <mxGeometry x="40" y="10" width="20" height="20" as="geometry" />
        </mxCell>
        <mxCell id="IGg1r8K_b_IqUX4lt3kt-6" value="" style="whiteSpace=wrap;html=1;aspect=fixed;fillColor=#d5e8d4;strokeColor=#82b366;" parent="IGg1r8K_b_IqUX4lt3kt-233" vertex="1">
          <mxGeometry x="70" y="10" width="20" height="20" as="geometry" />
        </mxCell>
        <mxCell id="IGg1r8K_b_IqUX4lt3kt-7" value="" style="whiteSpace=wrap;html=1;aspect=fixed;fillColor=#d5e8d4;strokeColor=#82b366;" parent="IGg1r8K_b_IqUX4lt3kt-233" vertex="1">
          <mxGeometry x="100" y="10" width="20" height="20" as="geometry" />
        </mxCell>
        <mxCell id="IGg1r8K_b_IqUX4lt3kt-8" value="" style="whiteSpace=wrap;html=1;aspect=fixed;fillColor=#d5e8d4;strokeColor=#82b366;" parent="IGg1r8K_b_IqUX4lt3kt-233" vertex="1">
          <mxGeometry x="130" y="10" width="20" height="20" as="geometry" />
        </mxCell>
        <mxCell id="IGg1r8K_b_IqUX4lt3kt-9" value="" style="endArrow=classic;html=1;rounded=0;exitX=1;exitY=0.5;exitDx=0;exitDy=0;entryX=0;entryY=0.5;entryDx=0;entryDy=0;strokeWidth=1;endSize=2;fillColor=#d5e8d4;strokeColor=#82b366;" parent="IGg1r8K_b_IqUX4lt3kt-233" source="IGg1r8K_b_IqUX4lt3kt-4" target="IGg1r8K_b_IqUX4lt3kt-5" edge="1">
          <mxGeometry width="50" height="50" relative="1" as="geometry">
            <mxPoint x="32" y="100" as="sourcePoint" />
            <mxPoint x="82" y="50" as="targetPoint" />
          </mxGeometry>
        </mxCell>
        <mxCell id="IGg1r8K_b_IqUX4lt3kt-12" value="" style="endArrow=classic;html=1;rounded=0;exitX=1;exitY=0.5;exitDx=0;exitDy=0;entryX=0;entryY=0.5;entryDx=0;entryDy=0;strokeWidth=1;endSize=2;fillColor=#d5e8d4;strokeColor=#82b366;" parent="IGg1r8K_b_IqUX4lt3kt-233" source="IGg1r8K_b_IqUX4lt3kt-5" target="IGg1r8K_b_IqUX4lt3kt-6" edge="1">
          <mxGeometry width="50" height="50" relative="1" as="geometry">
            <mxPoint x="40" y="30" as="sourcePoint" />
            <mxPoint x="50" y="30" as="targetPoint" />
          </mxGeometry>
        </mxCell>
        <mxCell id="IGg1r8K_b_IqUX4lt3kt-13" value="" style="endArrow=classic;html=1;rounded=0;exitX=1;exitY=0.5;exitDx=0;exitDy=0;entryX=0;entryY=0.5;entryDx=0;entryDy=0;strokeWidth=1;endSize=2;fillColor=#d5e8d4;strokeColor=#82b366;" parent="IGg1r8K_b_IqUX4lt3kt-233" source="IGg1r8K_b_IqUX4lt3kt-6" target="IGg1r8K_b_IqUX4lt3kt-7" edge="1">
          <mxGeometry width="50" height="50" relative="1" as="geometry">
            <mxPoint x="70" y="30" as="sourcePoint" />
            <mxPoint x="80" y="30" as="targetPoint" />
          </mxGeometry>
        </mxCell>
        <mxCell id="IGg1r8K_b_IqUX4lt3kt-14" value="" style="endArrow=classic;html=1;rounded=0;exitX=1;exitY=0.5;exitDx=0;exitDy=0;entryX=0;entryY=0.5;entryDx=0;entryDy=0;strokeWidth=1;endSize=2;fillColor=#d5e8d4;strokeColor=#82b366;" parent="IGg1r8K_b_IqUX4lt3kt-233" source="IGg1r8K_b_IqUX4lt3kt-7" target="IGg1r8K_b_IqUX4lt3kt-8" edge="1">
          <mxGeometry width="50" height="50" relative="1" as="geometry">
            <mxPoint x="100" y="30" as="sourcePoint" />
            <mxPoint x="110" y="30" as="targetPoint" />
          </mxGeometry>
        </mxCell>
        <mxCell id="JlkBKZ5nJkcB0ZHgIWBK-106" value="Shard 0" style="text;html=1;strokeColor=none;fillColor=none;align=center;verticalAlign=middle;whiteSpace=wrap;rounded=0;" vertex="1" parent="IGg1r8K_b_IqUX4lt3kt-55">
          <mxGeometry x="130" y="140" width="60" height="20" as="geometry" />
        </mxCell>
        <mxCell id="IGg1r8K_b_IqUX4lt3kt-56" value="" style="group;fillColor=#F0FCFF;strokeColor=none;" parent="1" vertex="1" connectable="0">
          <mxGeometry x="250" y="120" width="190" height="160" as="geometry" />
        </mxCell>
        <mxCell id="IGg1r8K_b_IqUX4lt3kt-57" value="" style="rounded=1;whiteSpace=wrap;html=1;arcSize=6;fillColor=#F0FCFF;strokeColor=#36393d;" parent="IGg1r8K_b_IqUX4lt3kt-56" vertex="1">
          <mxGeometry width="190" height="160" as="geometry" />
        </mxCell>
        <mxCell id="IGg1r8K_b_IqUX4lt3kt-68" value="" style="group" parent="IGg1r8K_b_IqUX4lt3kt-56" vertex="1" connectable="0">
          <mxGeometry x="30" y="60" width="154.45" height="90" as="geometry" />
        </mxCell>
        <mxCell id="IGg1r8K_b_IqUX4lt3kt-69" value="" style="ellipse;whiteSpace=wrap;html=1;" parent="IGg1r8K_b_IqUX4lt3kt-68" vertex="1">
          <mxGeometry width="130" height="90" as="geometry" />
        </mxCell>
        <mxCell id="IGg1r8K_b_IqUX4lt3kt-70" value="" style="ellipse;whiteSpace=wrap;html=1;aspect=fixed;fillColor=#ffe6cc;strokeColor=#d79b00;" parent="IGg1r8K_b_IqUX4lt3kt-68" vertex="1">
          <mxGeometry x="40.00333333333334" y="11.254999999999999" width="10.227272727272728" height="10.227272727272728" as="geometry" />
        </mxCell>
        <mxCell id="IGg1r8K_b_IqUX4lt3kt-71" value="" style="ellipse;whiteSpace=wrap;html=1;aspect=fixed;fillColor=#ffe6cc;strokeColor=#d79b00;" parent="IGg1r8K_b_IqUX4lt3kt-68" vertex="1">
          <mxGeometry x="72.10666666666667" y="11.25" width="10.227272727272728" height="10.227272727272728" as="geometry" />
        </mxCell>
        <mxCell id="IGg1r8K_b_IqUX4lt3kt-72" value="" style="ellipse;whiteSpace=wrap;html=1;aspect=fixed;fillColor=#ffe6cc;strokeColor=#d79b00;" parent="IGg1r8K_b_IqUX4lt3kt-68" vertex="1">
          <mxGeometry x="76.44333333333334" y="67.50500000000001" width="10.227272727272728" height="10.227272727272728" as="geometry" />
        </mxCell>
        <mxCell id="IGg1r8K_b_IqUX4lt3kt-73" value="" style="ellipse;whiteSpace=wrap;html=1;aspect=fixed;fillColor=#f8cecc;strokeColor=#b85450;" parent="IGg1r8K_b_IqUX4lt3kt-68" vertex="1">
          <mxGeometry x="100" y="39.89" width="10.227272727272728" height="10.227272727272728" as="geometry" />
        </mxCell>
        <mxCell id="IGg1r8K_b_IqUX4lt3kt-75" value="" style="ellipse;whiteSpace=wrap;html=1;aspect=fixed;fillColor=#dae8fc;strokeColor=#6c8ebf;" parent="IGg1r8K_b_IqUX4lt3kt-68" vertex="1">
          <mxGeometry x="16.86" y="39.89" width="10.227272727272728" height="10.227272727272728" as="geometry" />
        </mxCell>
        <mxCell id="IGg1r8K_b_IqUX4lt3kt-76" value="" style="endArrow=none;html=1;rounded=0;exitX=0.698;exitY=0.025;exitDx=0;exitDy=0;entryX=0;entryY=1;entryDx=0;entryDy=0;exitPerimeter=0;dashed=1;" parent="IGg1r8K_b_IqUX4lt3kt-68" source="IGg1r8K_b_IqUX4lt3kt-75" target="IGg1r8K_b_IqUX4lt3kt-70" edge="1">
          <mxGeometry width="50" height="50" relative="1" as="geometry">
            <mxPoint x="54.16666666666667" y="56.25" as="sourcePoint" />
            <mxPoint x="81.25" y="28.125" as="targetPoint" />
          </mxGeometry>
        </mxCell>
        <mxCell id="IGg1r8K_b_IqUX4lt3kt-78" value="" style="endArrow=none;html=1;rounded=0;exitX=-0.022;exitY=0.628;exitDx=0;exitDy=0;exitPerimeter=0;entryX=1;entryY=1;entryDx=0;entryDy=0;dashed=1;" parent="IGg1r8K_b_IqUX4lt3kt-68" source="IGg1r8K_b_IqUX4lt3kt-72" target="IGg1r8K_b_IqUX4lt3kt-75" edge="1">
          <mxGeometry width="50" height="50" relative="1" as="geometry">
            <mxPoint x="28.708333333333336" y="38.8125" as="sourcePoint" />
            <mxPoint x="37.31060606059896" y="72.61363636363626" as="targetPoint" />
          </mxGeometry>
        </mxCell>
        <mxCell id="IGg1r8K_b_IqUX4lt3kt-83" value="" style="endArrow=none;html=1;rounded=0;exitX=0;exitY=0;exitDx=0;exitDy=0;entryX=1;entryY=1;entryDx=0;entryDy=0;dashed=1;" parent="IGg1r8K_b_IqUX4lt3kt-68" source="IGg1r8K_b_IqUX4lt3kt-73" target="IGg1r8K_b_IqUX4lt3kt-71" edge="1">
          <mxGeometry width="50" height="50" relative="1" as="geometry">
            <mxPoint x="119.16666666666667" y="54.5625" as="sourcePoint" />
            <mxPoint x="31.958333333333336" y="36" as="targetPoint" />
          </mxGeometry>
        </mxCell>
        <mxCell id="IGg1r8K_b_IqUX4lt3kt-84" value="" style="endArrow=none;html=1;rounded=0;exitX=0;exitY=1;exitDx=0;exitDy=0;entryX=0.964;entryY=0.378;entryDx=0;entryDy=0;entryPerimeter=0;dashed=1;" parent="IGg1r8K_b_IqUX4lt3kt-68" source="IGg1r8K_b_IqUX4lt3kt-73" target="IGg1r8K_b_IqUX4lt3kt-72" edge="1">
          <mxGeometry width="50" height="50" relative="1" as="geometry">
            <mxPoint x="122.41666666666667" y="51.1875" as="sourcePoint" />
            <mxPoint x="101.29166666666667" y="26.4375" as="targetPoint" />
          </mxGeometry>
        </mxCell>
        <mxCell id="IGg1r8K_b_IqUX4lt3kt-273" value="" style="endArrow=none;html=1;rounded=0;exitX=1;exitY=0.5;exitDx=0;exitDy=0;entryX=0;entryY=0.5;entryDx=0;entryDy=0;" parent="IGg1r8K_b_IqUX4lt3kt-68" source="IGg1r8K_b_IqUX4lt3kt-70" target="IGg1r8K_b_IqUX4lt3kt-71" edge="1">
          <mxGeometry width="50" height="50" relative="1" as="geometry">
            <mxPoint x="50" y="10" as="sourcePoint" />
            <mxPoint x="100" y="-40" as="targetPoint" />
          </mxGeometry>
        </mxCell>
        <mxCell id="IGg1r8K_b_IqUX4lt3kt-274" value="" style="endArrow=none;html=1;rounded=0;entryX=0.5;entryY=1;entryDx=0;entryDy=0;exitX=0.5;exitY=0;exitDx=0;exitDy=0;" parent="IGg1r8K_b_IqUX4lt3kt-68" source="IGg1r8K_b_IqUX4lt3kt-72" target="IGg1r8K_b_IqUX4lt3kt-71" edge="1">
          <mxGeometry width="50" height="50" relative="1" as="geometry">
            <mxPoint x="82" y="68" as="sourcePoint" />
            <mxPoint x="130" y="10" as="targetPoint" />
          </mxGeometry>
        </mxCell>
        <mxCell id="IGg1r8K_b_IqUX4lt3kt-275" value="" style="endArrow=none;html=1;rounded=0;entryX=1;entryY=1;entryDx=0;entryDy=0;exitX=0;exitY=0;exitDx=0;exitDy=0;" parent="IGg1r8K_b_IqUX4lt3kt-68" source="IGg1r8K_b_IqUX4lt3kt-72" target="IGg1r8K_b_IqUX4lt3kt-70" edge="1">
          <mxGeometry width="50" height="50" relative="1" as="geometry">
            <mxPoint x="80" y="60" as="sourcePoint" />
            <mxPoint x="130" y="10" as="targetPoint" />
          </mxGeometry>
        </mxCell>
        <mxCell id="JlkBKZ5nJkcB0ZHgIWBK-184" value="" style="ellipse;whiteSpace=wrap;html=1;aspect=fixed;fillColor=#d5e8d4;strokeColor=#82b366;" vertex="1" parent="IGg1r8K_b_IqUX4lt3kt-68">
          <mxGeometry x="29.78000000000003" y="67.5" width="10.227272727272728" height="10.227272727272728" as="geometry" />
        </mxCell>
        <mxCell id="JlkBKZ5nJkcB0ZHgIWBK-185" value="" style="endArrow=none;html=1;rounded=0;exitX=-0.076;exitY=0.765;exitDx=0;exitDy=0;exitPerimeter=0;entryX=1;entryY=0.5;entryDx=0;entryDy=0;dashed=1;" edge="1" parent="IGg1r8K_b_IqUX4lt3kt-68" source="IGg1r8K_b_IqUX4lt3kt-72" target="JlkBKZ5nJkcB0ZHgIWBK-184">
          <mxGeometry width="50" height="50" relative="1" as="geometry">
            <mxPoint x="86" y="84" as="sourcePoint" />
            <mxPoint x="36" y="59" as="targetPoint" />
          </mxGeometry>
        </mxCell>
        <mxCell id="IGg1r8K_b_IqUX4lt3kt-229" value="" style="endArrow=none;dashed=1;html=1;rounded=0;exitX=0;exitY=0.5;exitDx=0;exitDy=0;entryX=0;entryY=1;entryDx=0;entryDy=0;" parent="IGg1r8K_b_IqUX4lt3kt-56" source="IGg1r8K_b_IqUX4lt3kt-69" target="IGg1r8K_b_IqUX4lt3kt-228" edge="1">
          <mxGeometry width="50" height="50" relative="1" as="geometry">
            <mxPoint x="-130" y="60" as="sourcePoint" />
            <mxPoint x="-80" y="10" as="targetPoint" />
          </mxGeometry>
        </mxCell>
        <mxCell id="IGg1r8K_b_IqUX4lt3kt-230" value="" style="endArrow=none;dashed=1;html=1;rounded=0;exitX=0.997;exitY=0.58;exitDx=0;exitDy=0;exitPerimeter=0;entryX=1;entryY=1;entryDx=0;entryDy=0;" parent="IGg1r8K_b_IqUX4lt3kt-56" source="IGg1r8K_b_IqUX4lt3kt-69" target="IGg1r8K_b_IqUX4lt3kt-228" edge="1">
          <mxGeometry width="50" height="50" relative="1" as="geometry">
            <mxPoint x="230" y="70" as="sourcePoint" />
            <mxPoint x="200" y="-30" as="targetPoint" />
          </mxGeometry>
        </mxCell>
        <mxCell id="IGg1r8K_b_IqUX4lt3kt-234" value="" style="group" parent="IGg1r8K_b_IqUX4lt3kt-56" vertex="1" connectable="0">
          <mxGeometry x="14.99999999999999" y="10" width="160" height="40" as="geometry" />
        </mxCell>
        <mxCell id="IGg1r8K_b_IqUX4lt3kt-228" value="" style="rounded=0;whiteSpace=wrap;html=1;" parent="IGg1r8K_b_IqUX4lt3kt-234" vertex="1">
          <mxGeometry width="160" height="40" as="geometry" />
        </mxCell>
        <mxCell id="JlkBKZ5nJkcB0ZHgIWBK-147" value="" style="group" vertex="1" connectable="0" parent="IGg1r8K_b_IqUX4lt3kt-234">
          <mxGeometry x="10" y="10" width="140" height="20" as="geometry" />
        </mxCell>
        <mxCell id="IGg1r8K_b_IqUX4lt3kt-59" value="" style="whiteSpace=wrap;html=1;aspect=fixed;fillColor=#ffe6cc;strokeColor=#d79b00;" parent="JlkBKZ5nJkcB0ZHgIWBK-147" vertex="1">
          <mxGeometry width="20" height="20" as="geometry" />
        </mxCell>
        <mxCell id="IGg1r8K_b_IqUX4lt3kt-60" value="" style="whiteSpace=wrap;html=1;aspect=fixed;fillColor=#ffe6cc;strokeColor=#d79b00;" parent="JlkBKZ5nJkcB0ZHgIWBK-147" vertex="1">
          <mxGeometry x="30" width="20" height="20" as="geometry" />
        </mxCell>
        <mxCell id="IGg1r8K_b_IqUX4lt3kt-61" value="" style="whiteSpace=wrap;html=1;aspect=fixed;fillColor=#ffe6cc;strokeColor=#d79b00;" parent="JlkBKZ5nJkcB0ZHgIWBK-147" vertex="1">
          <mxGeometry x="60" width="20" height="20" as="geometry" />
        </mxCell>
        <mxCell id="IGg1r8K_b_IqUX4lt3kt-62" value="" style="whiteSpace=wrap;html=1;aspect=fixed;fillColor=#ffe6cc;strokeColor=#d79b00;" parent="JlkBKZ5nJkcB0ZHgIWBK-147" vertex="1">
          <mxGeometry x="90" width="20" height="20" as="geometry" />
        </mxCell>
        <mxCell id="IGg1r8K_b_IqUX4lt3kt-63" value="" style="whiteSpace=wrap;html=1;aspect=fixed;fillColor=#ffe6cc;strokeColor=#d79b00;" parent="JlkBKZ5nJkcB0ZHgIWBK-147" vertex="1">
          <mxGeometry x="120" width="20" height="20" as="geometry" />
        </mxCell>
        <mxCell id="IGg1r8K_b_IqUX4lt3kt-64" value="" style="endArrow=classic;html=1;rounded=0;exitX=1;exitY=0.5;exitDx=0;exitDy=0;entryX=0;entryY=0.5;entryDx=0;entryDy=0;strokeWidth=1;endSize=2;fillColor=#ffe6cc;strokeColor=#d79b00;" parent="JlkBKZ5nJkcB0ZHgIWBK-147" source="IGg1r8K_b_IqUX4lt3kt-59" target="IGg1r8K_b_IqUX4lt3kt-60" edge="1">
          <mxGeometry width="50" height="50" relative="1" as="geometry">
            <mxPoint x="22" y="90" as="sourcePoint" />
            <mxPoint x="72" y="40" as="targetPoint" />
          </mxGeometry>
        </mxCell>
        <mxCell id="IGg1r8K_b_IqUX4lt3kt-65" value="" style="endArrow=classic;html=1;rounded=0;exitX=1;exitY=0.5;exitDx=0;exitDy=0;entryX=0;entryY=0.5;entryDx=0;entryDy=0;strokeWidth=1;endSize=2;fillColor=#ffe6cc;strokeColor=#d79b00;" parent="JlkBKZ5nJkcB0ZHgIWBK-147" source="IGg1r8K_b_IqUX4lt3kt-60" target="IGg1r8K_b_IqUX4lt3kt-61" edge="1">
          <mxGeometry width="50" height="50" relative="1" as="geometry">
            <mxPoint x="30" y="20" as="sourcePoint" />
            <mxPoint x="40" y="20" as="targetPoint" />
          </mxGeometry>
        </mxCell>
        <mxCell id="IGg1r8K_b_IqUX4lt3kt-66" value="" style="endArrow=classic;html=1;rounded=0;exitX=1;exitY=0.5;exitDx=0;exitDy=0;entryX=0;entryY=0.5;entryDx=0;entryDy=0;strokeWidth=1;endSize=2;fillColor=#ffe6cc;strokeColor=#d79b00;" parent="JlkBKZ5nJkcB0ZHgIWBK-147" source="IGg1r8K_b_IqUX4lt3kt-61" target="IGg1r8K_b_IqUX4lt3kt-62" edge="1">
          <mxGeometry width="50" height="50" relative="1" as="geometry">
            <mxPoint x="60" y="20" as="sourcePoint" />
            <mxPoint x="70" y="20" as="targetPoint" />
          </mxGeometry>
        </mxCell>
        <mxCell id="IGg1r8K_b_IqUX4lt3kt-67" value="" style="endArrow=classic;html=1;rounded=0;exitX=1;exitY=0.5;exitDx=0;exitDy=0;entryX=0;entryY=0.5;entryDx=0;entryDy=0;strokeWidth=1;endSize=2;fillColor=#ffe6cc;strokeColor=#d79b00;" parent="JlkBKZ5nJkcB0ZHgIWBK-147" source="IGg1r8K_b_IqUX4lt3kt-62" target="IGg1r8K_b_IqUX4lt3kt-63" edge="1">
          <mxGeometry width="50" height="50" relative="1" as="geometry">
            <mxPoint x="90" y="20" as="sourcePoint" />
            <mxPoint x="100" y="20" as="targetPoint" />
          </mxGeometry>
        </mxCell>
        <mxCell id="JlkBKZ5nJkcB0ZHgIWBK-3" value="" style="endArrow=classic;html=1;rounded=0;exitX=0.5;exitY=1;exitDx=0;exitDy=0;entryX=0.414;entryY=0.051;entryDx=0;entryDy=0;entryPerimeter=0;" edge="1" parent="IGg1r8K_b_IqUX4lt3kt-56" target="JlkBKZ5nJkcB0ZHgIWBK-1">
          <mxGeometry width="50" height="50" relative="1" as="geometry">
            <mxPoint x="95.5" y="150" as="sourcePoint" />
            <mxPoint x="94.5" y="190" as="targetPoint" />
          </mxGeometry>
        </mxCell>
        <mxCell id="JlkBKZ5nJkcB0ZHgIWBK-107" value="Shard 1" style="text;html=1;strokeColor=none;fillColor=none;align=center;verticalAlign=middle;whiteSpace=wrap;rounded=0;" vertex="1" parent="IGg1r8K_b_IqUX4lt3kt-56">
          <mxGeometry x="130" y="140" width="60" height="20" as="geometry" />
        </mxCell>
        <mxCell id="IGg1r8K_b_IqUX4lt3kt-270" value="" style="ellipse;whiteSpace=wrap;html=1;aspect=fixed;fillStyle=auto;fillColor=#000000;" parent="1" vertex="1">
          <mxGeometry x="492" y="197.5" width="5" height="5" as="geometry" />
        </mxCell>
        <mxCell id="IGg1r8K_b_IqUX4lt3kt-271" value="" style="ellipse;whiteSpace=wrap;html=1;aspect=fixed;fillStyle=auto;fillColor=#000000;" parent="1" vertex="1">
          <mxGeometry x="511" y="197.5" width="5" height="5" as="geometry" />
        </mxCell>
        <mxCell id="IGg1r8K_b_IqUX4lt3kt-272" value="" style="ellipse;whiteSpace=wrap;html=1;aspect=fixed;fillStyle=auto;fillColor=#000000;" parent="1" vertex="1">
          <mxGeometry x="530" y="197.5" width="5" height="5" as="geometry" />
        </mxCell>
        <mxCell id="IGg1r8K_b_IqUX4lt3kt-336" value="" style="group" parent="1" vertex="1" connectable="0">
          <mxGeometry x="214" y="370" width="400" height="210" as="geometry" />
        </mxCell>
        <mxCell id="IGg1r8K_b_IqUX4lt3kt-334" value="" style="ellipse;whiteSpace=wrap;html=1;" parent="IGg1r8K_b_IqUX4lt3kt-336" vertex="1">
          <mxGeometry width="400" height="210" as="geometry" />
        </mxCell>
        <mxCell id="IGg1r8K_b_IqUX4lt3kt-17" value="" style="ellipse;whiteSpace=wrap;html=1;aspect=fixed;fillColor=#d5e8d4;strokeColor=#82b366;" parent="IGg1r8K_b_IqUX4lt3kt-336" vertex="1">
          <mxGeometry x="114.53818181818183" y="24.003" width="10.49568078979844" height="10.49568078979844" as="geometry" />
        </mxCell>
        <mxCell id="IGg1r8K_b_IqUX4lt3kt-18" value="" style="ellipse;whiteSpace=wrap;html=1;aspect=fixed;fillColor=#d5e8d4;strokeColor=#82b366;" parent="IGg1r8K_b_IqUX4lt3kt-336" vertex="1">
          <mxGeometry x="155.44727272727275" y="31.877999999999997" width="10.49568078979844" height="10.49568078979844" as="geometry" />
        </mxCell>
        <mxCell id="IGg1r8K_b_IqUX4lt3kt-19" value="" style="ellipse;whiteSpace=wrap;html=1;aspect=fixed;fillColor=#d5e8d4;strokeColor=#82b366;" parent="IGg1r8K_b_IqUX4lt3kt-336" vertex="1">
          <mxGeometry x="121.8109090909091" y="89.625" width="10.49568078979844" height="10.49568078979844" as="geometry" />
        </mxCell>
        <mxCell id="IGg1r8K_b_IqUX4lt3kt-20" value="" style="ellipse;whiteSpace=wrap;html=1;aspect=fixed;fillColor=#d5e8d4;strokeColor=#82b366;" parent="IGg1r8K_b_IqUX4lt3kt-336" vertex="1">
          <mxGeometry x="162.72000000000003" y="79.128" width="10.49568078979844" height="10.49568078979844" as="geometry" />
        </mxCell>
        <mxCell id="IGg1r8K_b_IqUX4lt3kt-21" value="" style="ellipse;whiteSpace=wrap;html=1;aspect=fixed;fillColor=#d5e8d4;strokeColor=#82b366;" parent="IGg1r8K_b_IqUX4lt3kt-336" vertex="1">
          <mxGeometry x="72.72727272727273" y="100.11600000000001" width="10.49568078979844" height="10.49568078979844" as="geometry" />
        </mxCell>
        <mxCell id="IGg1r8K_b_IqUX4lt3kt-22" value="" style="ellipse;whiteSpace=wrap;html=1;aspect=fixed;fillColor=#d5e8d4;strokeColor=#82b366;" parent="IGg1r8K_b_IqUX4lt3kt-336" vertex="1">
          <mxGeometry x="49.08363636363637" y="47.62799999999999" width="10.49568078979844" height="10.49568078979844" as="geometry" />
        </mxCell>
        <mxCell id="IGg1r8K_b_IqUX4lt3kt-25" value="" style="endArrow=none;html=1;rounded=0;exitX=0.933;exitY=0.253;exitDx=0;exitDy=0;entryX=0.031;entryY=0.628;entryDx=0;entryDy=0;exitPerimeter=0;entryPerimeter=0;" parent="IGg1r8K_b_IqUX4lt3kt-336" source="IGg1r8K_b_IqUX4lt3kt-22" target="IGg1r8K_b_IqUX4lt3kt-17" edge="1">
          <mxGeometry width="50" height="50" relative="1" as="geometry">
            <mxPoint x="106.35636363636365" y="94.878" as="sourcePoint" />
            <mxPoint x="147.26545454545456" y="55.50299999999999" as="targetPoint" />
          </mxGeometry>
        </mxCell>
        <mxCell id="IGg1r8K_b_IqUX4lt3kt-26" value="" style="endArrow=none;html=1;rounded=0;exitX=0.669;exitY=0.947;exitDx=0;exitDy=0;exitPerimeter=0;" parent="IGg1r8K_b_IqUX4lt3kt-336" source="IGg1r8K_b_IqUX4lt3kt-22" target="IGg1r8K_b_IqUX4lt3kt-21" edge="1">
          <mxGeometry width="50" height="50" relative="1" as="geometry">
            <mxPoint x="73.62909090909092" y="79.128" as="sourcePoint" />
            <mxPoint x="125.17454545454547" y="61.0155" as="targetPoint" />
          </mxGeometry>
        </mxCell>
        <mxCell id="IGg1r8K_b_IqUX4lt3kt-27" value="" style="endArrow=none;html=1;rounded=0;exitX=-0.022;exitY=0.628;exitDx=0;exitDy=0;exitPerimeter=0;entryX=1;entryY=0.5;entryDx=0;entryDy=0;" parent="IGg1r8K_b_IqUX4lt3kt-336" source="IGg1r8K_b_IqUX4lt3kt-19" target="IGg1r8K_b_IqUX4lt3kt-21" edge="1">
          <mxGeometry width="50" height="50" relative="1" as="geometry">
            <mxPoint x="67.90181818181819" y="70.46549999999999" as="sourcePoint" />
            <mxPoint x="81.81090909090909" y="118.50299999999999" as="targetPoint" />
          </mxGeometry>
        </mxCell>
        <mxCell id="IGg1r8K_b_IqUX4lt3kt-28" value="" style="endArrow=none;html=1;rounded=0;exitX=0.336;exitY=0.933;exitDx=0;exitDy=0;exitPerimeter=0;entryX=1;entryY=0;entryDx=0;entryDy=0;" parent="IGg1r8K_b_IqUX4lt3kt-336" source="IGg1r8K_b_IqUX4lt3kt-18" target="IGg1r8K_b_IqUX4lt3kt-19" edge="1">
          <mxGeometry width="50" height="50" relative="1" as="geometry">
            <mxPoint x="137.44727272727275" y="120.8655" as="sourcePoint" />
            <mxPoint x="89.99272727272728" y="126.37799999999999" as="targetPoint" />
          </mxGeometry>
        </mxCell>
        <mxCell id="IGg1r8K_b_IqUX4lt3kt-29" value="" style="endArrow=none;html=1;rounded=0;exitX=0.017;exitY=0.35;exitDx=0;exitDy=0;exitPerimeter=0;entryX=0.961;entryY=0.711;entryDx=0;entryDy=0;entryPerimeter=0;" parent="IGg1r8K_b_IqUX4lt3kt-336" source="IGg1r8K_b_IqUX4lt3kt-20" target="IGg1r8K_b_IqUX4lt3kt-22" edge="1">
          <mxGeometry width="50" height="50" relative="1" as="geometry">
            <mxPoint x="169.35636363636365" y="54.7155" as="sourcePoint" />
            <mxPoint x="151.35636363636362" y="112.9905" as="targetPoint" />
          </mxGeometry>
        </mxCell>
        <mxCell id="IGg1r8K_b_IqUX4lt3kt-31" value="" style="endArrow=none;html=1;rounded=0;exitX=0;exitY=0;exitDx=0;exitDy=0;entryX=1;entryY=1;entryDx=0;entryDy=0;" parent="IGg1r8K_b_IqUX4lt3kt-336" source="IGg1r8K_b_IqUX4lt3kt-20" target="IGg1r8K_b_IqUX4lt3kt-17" edge="1">
          <mxGeometry width="50" height="50" relative="1" as="geometry">
            <mxPoint x="166.08363636363637" y="53.1405" as="sourcePoint" />
            <mxPoint x="86.72000000000001" y="119.2905" as="targetPoint" />
          </mxGeometry>
        </mxCell>
        <mxCell id="IGg1r8K_b_IqUX4lt3kt-32" value="" style="endArrow=none;html=1;rounded=0;exitX=0.294;exitY=0.058;exitDx=0;exitDy=0;exitPerimeter=0;entryX=1;entryY=1;entryDx=0;entryDy=0;" parent="IGg1r8K_b_IqUX4lt3kt-336" source="IGg1r8K_b_IqUX4lt3kt-20" target="IGg1r8K_b_IqUX4lt3kt-18" edge="1">
          <mxGeometry width="50" height="50" relative="1" as="geometry">
            <mxPoint x="204.5381818181818" y="92.5155" as="sourcePoint" />
            <mxPoint x="72.81090909090909" y="66.52799999999999" as="targetPoint" />
          </mxGeometry>
        </mxCell>
        <mxCell id="IGg1r8K_b_IqUX4lt3kt-33" value="" style="endArrow=none;html=1;rounded=0;exitX=0;exitY=1;exitDx=0;exitDy=0;entryX=1;entryY=0.5;entryDx=0;entryDy=0;" parent="IGg1r8K_b_IqUX4lt3kt-336" source="IGg1r8K_b_IqUX4lt3kt-20" target="IGg1r8K_b_IqUX4lt3kt-19" edge="1">
          <mxGeometry width="50" height="50" relative="1" as="geometry">
            <mxPoint x="162.72000000000003" y="88.128" as="sourcePoint" />
            <mxPoint x="140.9018181818182" y="106.12799999999999" as="targetPoint" />
          </mxGeometry>
        </mxCell>
        <mxCell id="IGg1r8K_b_IqUX4lt3kt-202" value="" style="ellipse;whiteSpace=wrap;html=1;aspect=fixed;fillColor=#d5e8d4;strokeColor=#82b366;" parent="IGg1r8K_b_IqUX4lt3kt-336" vertex="1">
          <mxGeometry x="188.16000000000003" y="52.128" width="10.49568078979844" height="10.49568078979844" as="geometry" />
        </mxCell>
        <mxCell id="IGg1r8K_b_IqUX4lt3kt-203" value="" style="ellipse;whiteSpace=wrap;html=1;aspect=fixed;fillColor=#f8cecc;strokeColor=#b85450;" parent="IGg1r8K_b_IqUX4lt3kt-336" vertex="1">
          <mxGeometry x="155.44727272727275" y="130.134" width="10.49568078979844" height="10.49568078979844" as="geometry" />
        </mxCell>
        <mxCell id="IGg1r8K_b_IqUX4lt3kt-204" value="" style="ellipse;whiteSpace=wrap;html=1;aspect=fixed;fillColor=#f8cecc;strokeColor=#b85450;" parent="IGg1r8K_b_IqUX4lt3kt-336" vertex="1">
          <mxGeometry x="101.81818181818181" y="127.506" width="10.49568078979844" height="10.49568078979844" as="geometry" />
        </mxCell>
        <mxCell id="IGg1r8K_b_IqUX4lt3kt-205" value="" style="ellipse;whiteSpace=wrap;html=1;aspect=fixed;fillColor=#d5e8d4;strokeColor=#82b366;" parent="IGg1r8K_b_IqUX4lt3kt-336" vertex="1">
          <mxGeometry x="78.16727272727273" y="24.005999999999997" width="10.49568078979844" height="10.49568078979844" as="geometry" />
        </mxCell>
        <mxCell id="IGg1r8K_b_IqUX4lt3kt-206" value="" style="ellipse;whiteSpace=wrap;html=1;aspect=fixed;fillColor=#d5e8d4;strokeColor=#82b366;" parent="IGg1r8K_b_IqUX4lt3kt-336" vertex="1">
          <mxGeometry x="36.36363636363637" y="79.128" width="10.49568078979844" height="10.49568078979844" as="geometry" />
        </mxCell>
        <mxCell id="IGg1r8K_b_IqUX4lt3kt-207" value="" style="ellipse;whiteSpace=wrap;html=1;aspect=fixed;fillColor=#d5e8d4;strokeColor=#82b366;" parent="IGg1r8K_b_IqUX4lt3kt-336" vertex="1">
          <mxGeometry x="78.16727272727273" y="68.63399999999999" width="10.49568078979844" height="10.49568078979844" as="geometry" />
        </mxCell>
        <mxCell id="IGg1r8K_b_IqUX4lt3kt-209" value="" style="endArrow=none;html=1;rounded=0;entryX=0;entryY=0.5;entryDx=0;entryDy=0;exitX=0.934;exitY=0.695;exitDx=0;exitDy=0;exitPerimeter=0;" parent="IGg1r8K_b_IqUX4lt3kt-336" source="IGg1r8K_b_IqUX4lt3kt-204" target="IGg1r8K_b_IqUX4lt3kt-203" edge="1">
          <mxGeometry width="50" height="50" relative="1" as="geometry">
            <mxPoint x="116.36363636363636" y="132" as="sourcePoint" />
            <mxPoint x="205.6290909090909" y="94.128" as="targetPoint" />
          </mxGeometry>
        </mxCell>
        <mxCell id="IGg1r8K_b_IqUX4lt3kt-210" value="" style="endArrow=none;html=1;rounded=0;exitX=1;exitY=1;exitDx=0;exitDy=0;entryX=0;entryY=0;entryDx=0;entryDy=0;" parent="IGg1r8K_b_IqUX4lt3kt-336" source="IGg1r8K_b_IqUX4lt3kt-206" target="IGg1r8K_b_IqUX4lt3kt-21" edge="1">
          <mxGeometry width="50" height="50" relative="1" as="geometry">
            <mxPoint x="121.99272727272728" y="132.528" as="sourcePoint" />
            <mxPoint x="177.26545454545456" y="121.12799999999999" as="targetPoint" />
          </mxGeometry>
        </mxCell>
        <mxCell id="IGg1r8K_b_IqUX4lt3kt-211" value="" style="endArrow=none;html=1;rounded=0;exitX=1;exitY=0.5;exitDx=0;exitDy=0;entryX=0.044;entryY=0.664;entryDx=0;entryDy=0;entryPerimeter=0;" parent="IGg1r8K_b_IqUX4lt3kt-336" source="IGg1r8K_b_IqUX4lt3kt-206" target="IGg1r8K_b_IqUX4lt3kt-207" edge="1">
          <mxGeometry width="50" height="50" relative="1" as="geometry">
            <mxPoint x="54.356363636363646" y="94.128" as="sourcePoint" />
            <mxPoint x="74.72000000000001" y="118.128" as="targetPoint" />
          </mxGeometry>
        </mxCell>
        <mxCell id="IGg1r8K_b_IqUX4lt3kt-213" value="" style="endArrow=none;html=1;rounded=0;exitX=0;exitY=0.5;exitDx=0;exitDy=0;entryX=1;entryY=0.5;entryDx=0;entryDy=0;" parent="IGg1r8K_b_IqUX4lt3kt-336" source="IGg1r8K_b_IqUX4lt3kt-17" target="IGg1r8K_b_IqUX4lt3kt-205" edge="1">
          <mxGeometry width="50" height="50" relative="1" as="geometry">
            <mxPoint x="91.44727272727273" y="44.327999999999996" as="sourcePoint" />
            <mxPoint x="89.26545454545455" y="79.728" as="targetPoint" />
          </mxGeometry>
        </mxCell>
        <mxCell id="IGg1r8K_b_IqUX4lt3kt-214" value="" style="endArrow=none;html=1;rounded=0;exitX=0;exitY=0.5;exitDx=0;exitDy=0;entryX=1;entryY=0;entryDx=0;entryDy=0;" parent="IGg1r8K_b_IqUX4lt3kt-336" source="IGg1r8K_b_IqUX4lt3kt-18" target="IGg1r8K_b_IqUX4lt3kt-207" edge="1">
          <mxGeometry width="50" height="50" relative="1" as="geometry">
            <mxPoint x="121.99272727272728" y="35.327999999999996" as="sourcePoint" />
            <mxPoint x="97.99272727272728" y="39.528" as="targetPoint" />
          </mxGeometry>
        </mxCell>
        <mxCell id="IGg1r8K_b_IqUX4lt3kt-216" value="" style="endArrow=none;html=1;rounded=0;entryX=0;entryY=0;entryDx=0;entryDy=0;" parent="IGg1r8K_b_IqUX4lt3kt-336" source="IGg1r8K_b_IqUX4lt3kt-18" target="IGg1r8K_b_IqUX4lt3kt-202" edge="1">
          <mxGeometry width="50" height="50" relative="1" as="geometry">
            <mxPoint x="206.35636363636365" y="94.128" as="sourcePoint" />
            <mxPoint x="242.72" y="64.12799999999999" as="targetPoint" />
          </mxGeometry>
        </mxCell>
        <mxCell id="IGg1r8K_b_IqUX4lt3kt-218" value="" style="endArrow=none;html=1;rounded=0;exitX=0.5;exitY=1;exitDx=0;exitDy=0;entryX=0.728;entryY=0.031;entryDx=0;entryDy=0;entryPerimeter=0;dashed=1;" parent="IGg1r8K_b_IqUX4lt3kt-336" source="IGg1r8K_b_IqUX4lt3kt-20" target="IGg1r8K_b_IqUX4lt3kt-203" edge="1">
          <mxGeometry width="50" height="50" relative="1" as="geometry">
            <mxPoint x="209.99272727272728" y="85.12799999999999" as="sourcePoint" />
            <mxPoint x="184.5381818181818" y="106.12799999999999" as="targetPoint" />
          </mxGeometry>
        </mxCell>
        <mxCell id="IGg1r8K_b_IqUX4lt3kt-217" value="" style="endArrow=none;html=1;rounded=0;exitX=1;exitY=0;exitDx=0;exitDy=0;entryX=0;entryY=1;entryDx=0;entryDy=0;" parent="IGg1r8K_b_IqUX4lt3kt-336" source="IGg1r8K_b_IqUX4lt3kt-20" target="IGg1r8K_b_IqUX4lt3kt-202" edge="1">
          <mxGeometry width="50" height="50" relative="1" as="geometry">
            <mxPoint x="174.35636363636365" y="46.12799999999999" as="sourcePoint" />
            <mxPoint x="184.5381818181818" y="58.128" as="targetPoint" />
          </mxGeometry>
        </mxCell>
        <mxCell id="IGg1r8K_b_IqUX4lt3kt-280" value="" style="ellipse;whiteSpace=wrap;html=1;aspect=fixed;fillColor=#ffe6cc;strokeColor=#d79b00;" parent="IGg1r8K_b_IqUX4lt3kt-336" vertex="1">
          <mxGeometry x="236.36363636363637" y="28.127999999999997" width="10.49568078979844" height="10.49568078979844" as="geometry" />
        </mxCell>
        <mxCell id="IGg1r8K_b_IqUX4lt3kt-281" value="" style="ellipse;whiteSpace=wrap;html=1;aspect=fixed;fillColor=#ffe6cc;strokeColor=#d79b00;" parent="IGg1r8K_b_IqUX4lt3kt-336" vertex="1">
          <mxGeometry x="249.0981818181818" y="58.122" width="10.49568078979844" height="10.49568078979844" as="geometry" />
        </mxCell>
        <mxCell id="IGg1r8K_b_IqUX4lt3kt-282" value="" style="ellipse;whiteSpace=wrap;html=1;aspect=fixed;fillColor=#ffe6cc;strokeColor=#d79b00;" parent="IGg1r8K_b_IqUX4lt3kt-336" vertex="1">
          <mxGeometry x="329.4545454545455" y="79.128" width="10.49568078979844" height="10.49568078979844" as="geometry" />
        </mxCell>
        <mxCell id="IGg1r8K_b_IqUX4lt3kt-283" value="" style="ellipse;whiteSpace=wrap;html=1;aspect=fixed;fillColor=#dae8fc;strokeColor=#6c8ebf;" parent="IGg1r8K_b_IqUX4lt3kt-336" vertex="1">
          <mxGeometry x="269.0909090909091" y="116.62199999999999" width="10.49568078979844" height="10.49568078979844" as="geometry" />
        </mxCell>
        <mxCell id="IGg1r8K_b_IqUX4lt3kt-284" value="" style="ellipse;whiteSpace=wrap;html=1;aspect=fixed;fillColor=#ffe6cc;strokeColor=#d79b00;" parent="IGg1r8K_b_IqUX4lt3kt-336" vertex="1">
          <mxGeometry x="261.8181818181818" y="84" width="10.49568078979844" height="10.49568078979844" as="geometry" />
        </mxCell>
        <mxCell id="IGg1r8K_b_IqUX4lt3kt-285" value="" style="ellipse;whiteSpace=wrap;html=1;aspect=fixed;fillColor=#ffe6cc;strokeColor=#d79b00;" parent="IGg1r8K_b_IqUX4lt3kt-336" vertex="1">
          <mxGeometry x="293.6363636363636" y="34.5" width="10.49568078979844" height="10.49568078979844" as="geometry" />
        </mxCell>
        <mxCell id="IGg1r8K_b_IqUX4lt3kt-286" value="" style="ellipse;whiteSpace=wrap;html=1;aspect=fixed;fillColor=#f8cecc;strokeColor=#b85450;" parent="IGg1r8K_b_IqUX4lt3kt-336" vertex="1">
          <mxGeometry x="114.53818181818188" y="151.122" width="10.49568078979844" height="10.49568078979844" as="geometry" />
        </mxCell>
        <mxCell id="IGg1r8K_b_IqUX4lt3kt-287" value="" style="ellipse;whiteSpace=wrap;html=1;aspect=fixed;fillColor=#f8cecc;strokeColor=#b85450;" parent="IGg1r8K_b_IqUX4lt3kt-336" vertex="1">
          <mxGeometry x="43.63636363636368" y="151.122" width="10.49568078979844" height="10.49568078979844" as="geometry" />
        </mxCell>
        <mxCell id="IGg1r8K_b_IqUX4lt3kt-288" value="" style="ellipse;whiteSpace=wrap;html=1;aspect=fixed;fillColor=#f8cecc;strokeColor=#b85450;" parent="IGg1r8K_b_IqUX4lt3kt-336" vertex="1">
          <mxGeometry x="155.44727272727278" y="169.506" width="10.49568078979844" height="10.49568078979844" as="geometry" />
        </mxCell>
        <mxCell id="IGg1r8K_b_IqUX4lt3kt-289" value="" style="ellipse;whiteSpace=wrap;html=1;aspect=fixed;fillColor=#dae8fc;strokeColor=#6c8ebf;" parent="IGg1r8K_b_IqUX4lt3kt-336" vertex="1">
          <mxGeometry x="321.27272727272725" y="140.62800000000001" width="10.49568078979844" height="10.49568078979844" as="geometry" />
        </mxCell>
        <mxCell id="IGg1r8K_b_IqUX4lt3kt-290" value="" style="ellipse;whiteSpace=wrap;html=1;aspect=fixed;fillColor=#dae8fc;strokeColor=#6c8ebf;" parent="IGg1r8K_b_IqUX4lt3kt-336" vertex="1">
          <mxGeometry x="210.9236363636364" y="132" width="10.49568078979844" height="10.49568078979844" as="geometry" />
        </mxCell>
        <mxCell id="IGg1r8K_b_IqUX4lt3kt-291" value="" style="ellipse;whiteSpace=wrap;html=1;aspect=fixed;fillColor=#f8cecc;strokeColor=#b85450;" parent="IGg1r8K_b_IqUX4lt3kt-336" vertex="1">
          <mxGeometry x="123.63636363636368" y="180" width="10.49568078979844" height="10.49568078979844" as="geometry" />
        </mxCell>
        <mxCell id="IGg1r8K_b_IqUX4lt3kt-292" value="" style="ellipse;whiteSpace=wrap;html=1;aspect=fixed;fillColor=#dae8fc;strokeColor=#6c8ebf;" parent="IGg1r8K_b_IqUX4lt3kt-336" vertex="1">
          <mxGeometry x="223.6436363636364" y="180" width="10.49568078979844" height="10.49568078979844" as="geometry" />
        </mxCell>
        <mxCell id="IGg1r8K_b_IqUX4lt3kt-293" value="" style="ellipse;whiteSpace=wrap;html=1;aspect=fixed;fillColor=#dae8fc;strokeColor=#6c8ebf;" parent="IGg1r8K_b_IqUX4lt3kt-336" vertex="1">
          <mxGeometry x="289.09818181818184" y="175.50599999999997" width="10.49568078979844" height="10.49568078979844" as="geometry" />
        </mxCell>
        <mxCell id="IGg1r8K_b_IqUX4lt3kt-295" value="" style="ellipse;whiteSpace=wrap;html=1;aspect=fixed;fillColor=#dae8fc;strokeColor=#6c8ebf;" parent="IGg1r8K_b_IqUX4lt3kt-336" vertex="1">
          <mxGeometry x="325.8181818181818" y="106.12799999999999" width="10.49568078979844" height="10.49568078979844" as="geometry" />
        </mxCell>
        <mxCell id="IGg1r8K_b_IqUX4lt3kt-296" value="" style="ellipse;whiteSpace=wrap;html=1;aspect=fixed;fillColor=#ffe6cc;strokeColor=#d79b00;" parent="IGg1r8K_b_IqUX4lt3kt-336" vertex="1">
          <mxGeometry x="342.17454545454547" y="41.63399999999999" width="10.49568078979844" height="10.49568078979844" as="geometry" />
        </mxCell>
        <mxCell id="IGg1r8K_b_IqUX4lt3kt-297" value="" style="endArrow=none;html=1;rounded=0;exitX=1;exitY=0;exitDx=0;exitDy=0;entryX=0.034;entryY=0.67;entryDx=0;entryDy=0;entryPerimeter=0;dashed=1;" parent="IGg1r8K_b_IqUX4lt3kt-336" source="IGg1r8K_b_IqUX4lt3kt-202" target="IGg1r8K_b_IqUX4lt3kt-280" edge="1">
          <mxGeometry width="50" height="50" relative="1" as="geometry">
            <mxPoint x="254.54545454545453" y="96" as="sourcePoint" />
            <mxPoint x="290.90909090909093" y="66" as="targetPoint" />
          </mxGeometry>
        </mxCell>
        <mxCell id="IGg1r8K_b_IqUX4lt3kt-298" value="" style="endArrow=none;html=1;rounded=0;exitX=1;exitY=0.5;exitDx=0;exitDy=0;entryX=0.037;entryY=0.36;entryDx=0;entryDy=0;entryPerimeter=0;" parent="IGg1r8K_b_IqUX4lt3kt-336" source="IGg1r8K_b_IqUX4lt3kt-280" target="IGg1r8K_b_IqUX4lt3kt-285" edge="1">
          <mxGeometry width="50" height="50" relative="1" as="geometry">
            <mxPoint x="206.54545454545453" y="59.4" as="sourcePoint" />
            <mxPoint x="290.90909090909093" y="24" as="targetPoint" />
          </mxGeometry>
        </mxCell>
        <mxCell id="IGg1r8K_b_IqUX4lt3kt-299" value="" style="endArrow=none;html=1;rounded=0;exitX=1;exitY=0.5;exitDx=0;exitDy=0;entryX=0.018;entryY=0.344;entryDx=0;entryDy=0;entryPerimeter=0;" parent="IGg1r8K_b_IqUX4lt3kt-336" source="IGg1r8K_b_IqUX4lt3kt-285" target="IGg1r8K_b_IqUX4lt3kt-296" edge="1">
          <mxGeometry width="50" height="50" relative="1" as="geometry">
            <mxPoint x="256" y="39.6" as="sourcePoint" />
            <mxPoint x="341.8181818181818" y="48" as="targetPoint" />
          </mxGeometry>
        </mxCell>
        <mxCell id="IGg1r8K_b_IqUX4lt3kt-300" value="" style="endArrow=none;html=1;rounded=0;exitX=1;exitY=0;exitDx=0;exitDy=0;entryX=0;entryY=1;entryDx=0;entryDy=0;" parent="IGg1r8K_b_IqUX4lt3kt-336" source="IGg1r8K_b_IqUX4lt3kt-284" target="IGg1r8K_b_IqUX4lt3kt-296" edge="1">
          <mxGeometry width="50" height="50" relative="1" as="geometry">
            <mxPoint x="313.4545454545455" y="45.6" as="sourcePoint" />
            <mxPoint x="349.09090909090907" y="52.8" as="targetPoint" />
          </mxGeometry>
        </mxCell>
        <mxCell id="IGg1r8K_b_IqUX4lt3kt-302" value="" style="endArrow=none;html=1;rounded=0;exitX=0.698;exitY=0.044;exitDx=0;exitDy=0;entryX=0.334;entryY=0.983;entryDx=0;entryDy=0;exitPerimeter=0;entryPerimeter=0;" parent="IGg1r8K_b_IqUX4lt3kt-336" source="IGg1r8K_b_IqUX4lt3kt-289" target="IGg1r8K_b_IqUX4lt3kt-295" edge="1">
          <mxGeometry width="50" height="50" relative="1" as="geometry">
            <mxPoint x="317.8181818181818" y="92.39999999999999" as="sourcePoint" />
            <mxPoint x="349.09090909090907" y="99" as="targetPoint" />
          </mxGeometry>
        </mxCell>
        <mxCell id="IGg1r8K_b_IqUX4lt3kt-303" value="" style="endArrow=none;html=1;rounded=0;exitX=0.012;exitY=0.315;exitDx=0;exitDy=0;exitPerimeter=0;entryX=1;entryY=1;entryDx=0;entryDy=0;" parent="IGg1r8K_b_IqUX4lt3kt-336" source="IGg1r8K_b_IqUX4lt3kt-289" target="IGg1r8K_b_IqUX4lt3kt-283" edge="1">
          <mxGeometry width="50" height="50" relative="1" as="geometry">
            <mxPoint x="320" y="144" as="sourcePoint" />
            <mxPoint x="283.6363636363636" y="126" as="targetPoint" />
          </mxGeometry>
        </mxCell>
        <mxCell id="IGg1r8K_b_IqUX4lt3kt-304" value="" style="endArrow=none;html=1;rounded=0;exitX=0.734;exitY=0.927;exitDx=0;exitDy=0;entryX=0;entryY=0;entryDx=0;entryDy=0;exitPerimeter=0;" parent="IGg1r8K_b_IqUX4lt3kt-336" source="IGg1r8K_b_IqUX4lt3kt-280" target="IGg1r8K_b_IqUX4lt3kt-281" edge="1">
          <mxGeometry width="50" height="50" relative="1" as="geometry">
            <mxPoint x="328.7272727272727" y="150" as="sourcePoint" />
            <mxPoint x="287.27272727272725" y="131.4" as="targetPoint" />
          </mxGeometry>
        </mxCell>
        <mxCell id="IGg1r8K_b_IqUX4lt3kt-305" value="" style="endArrow=none;html=1;rounded=0;exitX=0.068;exitY=0.7;exitDx=0;exitDy=0;entryX=1;entryY=0;entryDx=0;entryDy=0;exitPerimeter=0;" parent="IGg1r8K_b_IqUX4lt3kt-336" source="IGg1r8K_b_IqUX4lt3kt-285" target="IGg1r8K_b_IqUX4lt3kt-281" edge="1">
          <mxGeometry width="50" height="50" relative="1" as="geometry">
            <mxPoint x="253.0909090909091" y="43.8" as="sourcePoint" />
            <mxPoint x="271.27272727272725" y="65.4" as="targetPoint" />
          </mxGeometry>
        </mxCell>
        <mxCell id="IGg1r8K_b_IqUX4lt3kt-306" value="" style="endArrow=none;html=1;rounded=0;exitX=0.63;exitY=0.972;exitDx=0;exitDy=0;entryX=0.5;entryY=0;entryDx=0;entryDy=0;exitPerimeter=0;" parent="IGg1r8K_b_IqUX4lt3kt-336" source="IGg1r8K_b_IqUX4lt3kt-285" target="IGg1r8K_b_IqUX4lt3kt-284" edge="1">
          <mxGeometry width="50" height="50" relative="1" as="geometry">
            <mxPoint x="302.54545454545456" y="49.2" as="sourcePoint" />
            <mxPoint x="280" y="65.4" as="targetPoint" />
          </mxGeometry>
        </mxCell>
        <mxCell id="IGg1r8K_b_IqUX4lt3kt-307" value="" style="endArrow=none;html=1;rounded=0;entryX=1;entryY=0.5;entryDx=0;entryDy=0;exitX=0;exitY=0.5;exitDx=0;exitDy=0;" parent="IGg1r8K_b_IqUX4lt3kt-336" source="IGg1r8K_b_IqUX4lt3kt-282" target="IGg1r8K_b_IqUX4lt3kt-284" edge="1">
          <mxGeometry width="50" height="50" relative="1" as="geometry">
            <mxPoint x="327.27272727272725" y="84.6" as="sourcePoint" />
            <mxPoint x="276.3636363636364" y="90" as="targetPoint" />
          </mxGeometry>
        </mxCell>
        <mxCell id="IGg1r8K_b_IqUX4lt3kt-308" value="" style="endArrow=none;html=1;rounded=0;exitX=0.934;exitY=0.753;exitDx=0;exitDy=0;entryX=0.035;entryY=0.277;entryDx=0;entryDy=0;exitPerimeter=0;entryPerimeter=0;dashed=1;" parent="IGg1r8K_b_IqUX4lt3kt-336" source="IGg1r8K_b_IqUX4lt3kt-202" target="IGg1r8K_b_IqUX4lt3kt-284" edge="1">
          <mxGeometry width="50" height="50" relative="1" as="geometry">
            <mxPoint x="242.90909090909093" y="99.60000000000001" as="sourcePoint" />
            <mxPoint x="305.4545454545455" y="91.8" as="targetPoint" />
          </mxGeometry>
        </mxCell>
        <mxCell id="IGg1r8K_b_IqUX4lt3kt-309" value="" style="endArrow=none;html=1;rounded=0;exitX=1;exitY=1;exitDx=0;exitDy=0;entryX=0.28;entryY=-0.005;entryDx=0;entryDy=0;entryPerimeter=0;" parent="IGg1r8K_b_IqUX4lt3kt-336" source="IGg1r8K_b_IqUX4lt3kt-281" target="IGg1r8K_b_IqUX4lt3kt-284" edge="1">
          <mxGeometry width="50" height="50" relative="1" as="geometry">
            <mxPoint x="207.27272727272725" y="66" as="sourcePoint" />
            <mxPoint x="306.1818181818182" y="88.2" as="targetPoint" />
          </mxGeometry>
        </mxCell>
        <mxCell id="IGg1r8K_b_IqUX4lt3kt-310" value="" style="endArrow=none;html=1;rounded=0;exitX=1;exitY=0;exitDx=0;exitDy=0;entryX=0.063;entryY=0.711;entryDx=0;entryDy=0;entryPerimeter=0;" parent="IGg1r8K_b_IqUX4lt3kt-336" source="IGg1r8K_b_IqUX4lt3kt-283" target="IGg1r8K_b_IqUX4lt3kt-295" edge="1">
          <mxGeometry width="50" height="50" relative="1" as="geometry">
            <mxPoint x="242.90909090909093" y="99.60000000000001" as="sourcePoint" />
            <mxPoint x="305.4545454545455" y="91.8" as="targetPoint" />
          </mxGeometry>
        </mxCell>
        <mxCell id="IGg1r8K_b_IqUX4lt3kt-311" value="" style="endArrow=none;html=1;rounded=0;exitX=0;exitY=1;exitDx=0;exitDy=0;entryX=1;entryY=0;entryDx=0;entryDy=0;" parent="IGg1r8K_b_IqUX4lt3kt-336" source="IGg1r8K_b_IqUX4lt3kt-289" target="IGg1r8K_b_IqUX4lt3kt-293" edge="1">
          <mxGeometry width="50" height="50" relative="1" as="geometry">
            <mxPoint x="328.7272727272727" y="150" as="sourcePoint" />
            <mxPoint x="287.27272727272725" y="131.4" as="targetPoint" />
          </mxGeometry>
        </mxCell>
        <mxCell id="IGg1r8K_b_IqUX4lt3kt-312" value="" style="endArrow=none;html=1;rounded=0;exitX=1;exitY=0.5;exitDx=0;exitDy=0;entryX=-0.013;entryY=0.622;entryDx=0;entryDy=0;entryPerimeter=0;" parent="IGg1r8K_b_IqUX4lt3kt-336" source="IGg1r8K_b_IqUX4lt3kt-292" target="IGg1r8K_b_IqUX4lt3kt-293" edge="1">
          <mxGeometry width="50" height="50" relative="1" as="geometry">
            <mxPoint x="330.1818181818182" y="155.4" as="sourcePoint" />
            <mxPoint x="306.90909090909093" y="183" as="targetPoint" />
          </mxGeometry>
        </mxCell>
        <mxCell id="IGg1r8K_b_IqUX4lt3kt-313" value="" style="endArrow=none;html=1;rounded=0;exitX=0.5;exitY=1;exitDx=0;exitDy=0;entryX=0.273;entryY=0.066;entryDx=0;entryDy=0;entryPerimeter=0;" parent="IGg1r8K_b_IqUX4lt3kt-336" source="IGg1r8K_b_IqUX4lt3kt-283" target="IGg1r8K_b_IqUX4lt3kt-293" edge="1">
          <mxGeometry width="50" height="50" relative="1" as="geometry">
            <mxPoint x="243.63636363636365" y="191.39999999999998" as="sourcePoint" />
            <mxPoint x="296" y="187.8" as="targetPoint" />
          </mxGeometry>
        </mxCell>
        <mxCell id="IGg1r8K_b_IqUX4lt3kt-315" value="" style="endArrow=none;html=1;rounded=0;exitX=0.5;exitY=1;exitDx=0;exitDy=0;entryX=0.5;entryY=0;entryDx=0;entryDy=0;dashed=1;" parent="IGg1r8K_b_IqUX4lt3kt-336" source="IGg1r8K_b_IqUX4lt3kt-284" target="IGg1r8K_b_IqUX4lt3kt-283" edge="1">
          <mxGeometry width="50" height="50" relative="1" as="geometry">
            <mxPoint x="241.45454545454544" y="104.4" as="sourcePoint" />
            <mxPoint x="278.54545454545456" y="124.2" as="targetPoint" />
          </mxGeometry>
        </mxCell>
        <mxCell id="IGg1r8K_b_IqUX4lt3kt-316" value="" style="endArrow=none;html=1;rounded=0;exitX=0.32;exitY=0.945;exitDx=0;exitDy=0;entryX=0.731;entryY=0.011;entryDx=0;entryDy=0;entryPerimeter=0;exitPerimeter=0;dashed=1;" parent="IGg1r8K_b_IqUX4lt3kt-336" source="IGg1r8K_b_IqUX4lt3kt-281" target="IGg1r8K_b_IqUX4lt3kt-290" edge="1">
          <mxGeometry width="50" height="50" relative="1" as="geometry">
            <mxPoint x="312" y="95.39999999999999" as="sourcePoint" />
            <mxPoint x="285.09090909090907" y="123.00000000000001" as="targetPoint" />
          </mxGeometry>
        </mxCell>
        <mxCell id="IGg1r8K_b_IqUX4lt3kt-318" value="" style="endArrow=none;html=1;rounded=0;exitX=0.019;exitY=0.674;exitDx=0;exitDy=0;entryX=1;entryY=0.5;entryDx=0;entryDy=0;exitPerimeter=0;" parent="IGg1r8K_b_IqUX4lt3kt-336" source="IGg1r8K_b_IqUX4lt3kt-283" target="IGg1r8K_b_IqUX4lt3kt-290" edge="1">
          <mxGeometry width="50" height="50" relative="1" as="geometry">
            <mxPoint x="273.4545454545455" y="73.8" as="sourcePoint" />
            <mxPoint x="227.63636363636365" y="138" as="targetPoint" />
          </mxGeometry>
        </mxCell>
        <mxCell id="IGg1r8K_b_IqUX4lt3kt-319" value="" style="endArrow=none;html=1;rounded=0;exitX=0.721;exitY=0.048;exitDx=0;exitDy=0;exitPerimeter=0;entryX=0;entryY=1;entryDx=0;entryDy=0;dashed=1;" parent="IGg1r8K_b_IqUX4lt3kt-336" source="IGg1r8K_b_IqUX4lt3kt-288" target="IGg1r8K_b_IqUX4lt3kt-290" edge="1">
          <mxGeometry width="50" height="50" relative="1" as="geometry">
            <mxPoint x="196.36363636363637" y="168" as="sourcePoint" />
            <mxPoint x="210.9090909090909" y="144" as="targetPoint" />
          </mxGeometry>
        </mxCell>
        <mxCell id="IGg1r8K_b_IqUX4lt3kt-320" value="" style="endArrow=none;html=1;rounded=0;exitX=0.384;exitY=0.003;exitDx=0;exitDy=0;exitPerimeter=0;entryX=0.653;entryY=0.988;entryDx=0;entryDy=0;entryPerimeter=0;" parent="IGg1r8K_b_IqUX4lt3kt-336" source="IGg1r8K_b_IqUX4lt3kt-292" target="IGg1r8K_b_IqUX4lt3kt-290" edge="1">
          <mxGeometry width="50" height="50" relative="1" as="geometry">
            <mxPoint x="202.9090909090909" y="172.20000000000002" as="sourcePoint" />
            <mxPoint x="220.36363636363637" y="147" as="targetPoint" />
          </mxGeometry>
        </mxCell>
        <mxCell id="IGg1r8K_b_IqUX4lt3kt-321" value="" style="endArrow=none;html=1;rounded=0;exitX=1;exitY=0;exitDx=0;exitDy=0;entryX=0.273;entryY=0.928;entryDx=0;entryDy=0;entryPerimeter=0;" parent="IGg1r8K_b_IqUX4lt3kt-336" source="IGg1r8K_b_IqUX4lt3kt-292" target="IGg1r8K_b_IqUX4lt3kt-283" edge="1">
          <mxGeometry width="50" height="50" relative="1" as="geometry">
            <mxPoint x="235.63636363636365" y="186" as="sourcePoint" />
            <mxPoint x="226.1818181818182" y="148.2" as="targetPoint" />
          </mxGeometry>
        </mxCell>
        <mxCell id="IGg1r8K_b_IqUX4lt3kt-322" value="" style="endArrow=none;html=1;rounded=0;entryX=-0.014;entryY=0.648;entryDx=0;entryDy=0;entryPerimeter=0;exitX=0.972;exitY=0.343;exitDx=0;exitDy=0;exitPerimeter=0;" parent="IGg1r8K_b_IqUX4lt3kt-336" source="IGg1r8K_b_IqUX4lt3kt-291" target="IGg1r8K_b_IqUX4lt3kt-288" edge="1">
          <mxGeometry width="50" height="50" relative="1" as="geometry">
            <mxPoint x="138.1818181818182" y="180" as="sourcePoint" />
            <mxPoint x="261.8181818181818" y="102" as="targetPoint" />
          </mxGeometry>
        </mxCell>
        <mxCell id="IGg1r8K_b_IqUX4lt3kt-323" value="" style="endArrow=none;html=1;rounded=0;entryX=0.286;entryY=0.095;entryDx=0;entryDy=0;entryPerimeter=0;exitX=0.743;exitY=0.979;exitDx=0;exitDy=0;exitPerimeter=0;" parent="IGg1r8K_b_IqUX4lt3kt-336" source="IGg1r8K_b_IqUX4lt3kt-286" target="IGg1r8K_b_IqUX4lt3kt-291" edge="1">
          <mxGeometry width="50" height="50" relative="1" as="geometry">
            <mxPoint x="143.27272727272728" y="189.6" as="sourcePoint" />
            <mxPoint x="193.45454545454547" y="178.20000000000002" as="targetPoint" />
          </mxGeometry>
        </mxCell>
        <mxCell id="IGg1r8K_b_IqUX4lt3kt-324" value="" style="endArrow=none;html=1;rounded=0;entryX=0.724;entryY=0.057;entryDx=0;entryDy=0;entryPerimeter=0;exitX=0.349;exitY=0.979;exitDx=0;exitDy=0;exitPerimeter=0;" parent="IGg1r8K_b_IqUX4lt3kt-336" source="IGg1r8K_b_IqUX4lt3kt-203" target="IGg1r8K_b_IqUX4lt3kt-291" edge="1">
          <mxGeometry width="50" height="50" relative="1" as="geometry">
            <mxPoint x="125.81818181818183" y="167.4" as="sourcePoint" />
            <mxPoint x="134.54545454545456" y="187.20000000000002" as="targetPoint" />
          </mxGeometry>
        </mxCell>
        <mxCell id="IGg1r8K_b_IqUX4lt3kt-325" value="" style="endArrow=none;html=1;rounded=0;exitX=1;exitY=0.5;exitDx=0;exitDy=0;entryX=0;entryY=0.5;entryDx=0;entryDy=0;" parent="IGg1r8K_b_IqUX4lt3kt-336" source="IGg1r8K_b_IqUX4lt3kt-287" target="IGg1r8K_b_IqUX4lt3kt-286" edge="1">
          <mxGeometry width="50" height="50" relative="1" as="geometry">
            <mxPoint x="210.9090909090909" y="114" as="sourcePoint" />
            <mxPoint x="247.27272727272725" y="84" as="targetPoint" />
          </mxGeometry>
        </mxCell>
        <mxCell id="IGg1r8K_b_IqUX4lt3kt-326" value="" style="endArrow=none;html=1;rounded=0;exitX=1;exitY=1;exitDx=0;exitDy=0;entryX=-0.019;entryY=0.293;entryDx=0;entryDy=0;entryPerimeter=0;" parent="IGg1r8K_b_IqUX4lt3kt-336" source="IGg1r8K_b_IqUX4lt3kt-287" target="IGg1r8K_b_IqUX4lt3kt-291" edge="1">
          <mxGeometry width="50" height="50" relative="1" as="geometry">
            <mxPoint x="210.9090909090909" y="114" as="sourcePoint" />
            <mxPoint x="247.27272727272725" y="84" as="targetPoint" />
          </mxGeometry>
        </mxCell>
        <mxCell id="IGg1r8K_b_IqUX4lt3kt-327" value="" style="endArrow=none;html=1;rounded=0;exitX=0;exitY=1;exitDx=0;exitDy=0;entryX=0.689;entryY=-0.003;entryDx=0;entryDy=0;entryPerimeter=0;dashed=1;" parent="IGg1r8K_b_IqUX4lt3kt-336" source="IGg1r8K_b_IqUX4lt3kt-21" target="IGg1r8K_b_IqUX4lt3kt-287" edge="1">
          <mxGeometry width="50" height="50" relative="1" as="geometry">
            <mxPoint x="61.81818181818181" y="166.20000000000002" as="sourcePoint" />
            <mxPoint x="130.9090909090909" y="189" as="targetPoint" />
          </mxGeometry>
        </mxCell>
        <mxCell id="IGg1r8K_b_IqUX4lt3kt-328" value="" style="endArrow=none;html=1;rounded=0;exitX=0;exitY=0;exitDx=0;exitDy=0;entryX=1;entryY=0.5;entryDx=0;entryDy=0;" parent="IGg1r8K_b_IqUX4lt3kt-336" source="IGg1r8K_b_IqUX4lt3kt-288" target="IGg1r8K_b_IqUX4lt3kt-286" edge="1">
          <mxGeometry width="50" height="50" relative="1" as="geometry">
            <mxPoint x="74.9090909090909" y="125.4" as="sourcePoint" />
            <mxPoint x="123.63636363636363" y="156" as="targetPoint" />
          </mxGeometry>
        </mxCell>
        <mxCell id="IGg1r8K_b_IqUX4lt3kt-329" value="" style="endArrow=none;dashed=1;html=1;dashPattern=1 2;strokeWidth=3;rounded=0;entryX=0.544;entryY=-0.003;entryDx=0;entryDy=0;entryPerimeter=0;exitX=0.469;exitY=0.999;exitDx=0;exitDy=0;exitPerimeter=0;opacity=60;" parent="IGg1r8K_b_IqUX4lt3kt-336" edge="1" target="IGg1r8K_b_IqUX4lt3kt-334" source="IGg1r8K_b_IqUX4lt3kt-334">
          <mxGeometry width="50" height="50" relative="1" as="geometry">
            <mxPoint x="189.0909090909091" y="204" as="sourcePoint" />
            <mxPoint x="218.1818181818182" y="6" as="targetPoint" />
          </mxGeometry>
        </mxCell>
        <mxCell id="IGg1r8K_b_IqUX4lt3kt-331" value="" style="endArrow=none;html=1;rounded=0;exitX=1;exitY=0;exitDx=0;exitDy=0;entryX=0.008;entryY=0.695;entryDx=0;entryDy=0;entryPerimeter=0;" parent="IGg1r8K_b_IqUX4lt3kt-336" source="IGg1r8K_b_IqUX4lt3kt-287" target="IGg1r8K_b_IqUX4lt3kt-204" edge="1">
          <mxGeometry width="50" height="50" relative="1" as="geometry">
            <mxPoint x="210.9090909090909" y="114" as="sourcePoint" />
            <mxPoint x="247.27272727272725" y="84" as="targetPoint" />
          </mxGeometry>
        </mxCell>
        <mxCell id="IGg1r8K_b_IqUX4lt3kt-332" value="" style="endArrow=none;dashed=1;html=1;dashPattern=1 2;strokeWidth=3;rounded=0;entryX=0.996;entryY=0.444;entryDx=0;entryDy=0;entryPerimeter=0;exitX=0.015;exitY=0.601;exitDx=0;exitDy=0;exitPerimeter=0;opacity=60;" parent="IGg1r8K_b_IqUX4lt3kt-336" target="IGg1r8K_b_IqUX4lt3kt-334" edge="1" source="IGg1r8K_b_IqUX4lt3kt-334">
          <mxGeometry width="50" height="50" relative="1" as="geometry">
            <mxPoint x="43.63636363636363" y="126" as="sourcePoint" />
            <mxPoint x="356.3636363636364" y="96" as="targetPoint" />
          </mxGeometry>
        </mxCell>
        <mxCell id="IGg1r8K_b_IqUX4lt3kt-333" value="" style="endArrow=none;html=1;rounded=0;exitX=1;exitY=0.5;exitDx=0;exitDy=0;entryX=0;entryY=0.5;entryDx=0;entryDy=0;" parent="IGg1r8K_b_IqUX4lt3kt-336" source="IGg1r8K_b_IqUX4lt3kt-207" target="IGg1r8K_b_IqUX4lt3kt-202" edge="1">
          <mxGeometry width="50" height="50" relative="1" as="geometry">
            <mxPoint x="210.9090909090909" y="114" as="sourcePoint" />
            <mxPoint x="247.27272727272725" y="84" as="targetPoint" />
          </mxGeometry>
        </mxCell>
        <mxCell id="IGg1r8K_b_IqUX4lt3kt-345" value="" style="endArrow=none;html=1;rounded=0;entryX=0;entryY=0;entryDx=0;entryDy=0;exitX=0.5;exitY=1;exitDx=0;exitDy=0;" parent="IGg1r8K_b_IqUX4lt3kt-336" source="IGg1r8K_b_IqUX4lt3kt-204" target="IGg1r8K_b_IqUX4lt3kt-286" edge="1">
          <mxGeometry width="50" height="50" relative="1" as="geometry">
            <mxPoint x="366" y="-9" as="sourcePoint" />
            <mxPoint x="416" y="-59" as="targetPoint" />
          </mxGeometry>
        </mxCell>
        <mxCell id="IGg1r8K_b_IqUX4lt3kt-346" value="" style="endArrow=none;html=1;rounded=0;exitX=0.5;exitY=0;exitDx=0;exitDy=0;entryX=0.5;entryY=1;entryDx=0;entryDy=0;" parent="IGg1r8K_b_IqUX4lt3kt-336" source="IGg1r8K_b_IqUX4lt3kt-288" target="IGg1r8K_b_IqUX4lt3kt-203" edge="1">
          <mxGeometry width="50" height="50" relative="1" as="geometry">
            <mxPoint x="216" y="111" as="sourcePoint" />
            <mxPoint x="266" y="61" as="targetPoint" />
          </mxGeometry>
        </mxCell>
        <mxCell id="IGg1r8K_b_IqUX4lt3kt-347" value="" style="endArrow=none;html=1;rounded=0;entryX=0;entryY=1;entryDx=0;entryDy=0;exitX=0.5;exitY=0;exitDx=0;exitDy=0;" parent="IGg1r8K_b_IqUX4lt3kt-336" source="IGg1r8K_b_IqUX4lt3kt-206" target="IGg1r8K_b_IqUX4lt3kt-22" edge="1">
          <mxGeometry width="50" height="50" relative="1" as="geometry">
            <mxPoint x="156" y="141" as="sourcePoint" />
            <mxPoint x="206" y="91" as="targetPoint" />
          </mxGeometry>
        </mxCell>
        <mxCell id="JlkBKZ5nJkcB0ZHgIWBK-1" value="Merge Local Graphs" style="rounded=1;whiteSpace=wrap;html=1;fillColor=#F0F0F4;strokeColor=#36393d;" vertex="1" parent="1">
          <mxGeometry x="40" y="310" width="740" height="30" as="geometry" />
        </mxCell>
        <mxCell id="JlkBKZ5nJkcB0ZHgIWBK-2" value="" style="endArrow=classic;html=1;rounded=0;exitX=0.5;exitY=1;exitDx=0;exitDy=0;" edge="1" parent="1" source="IGg1r8K_b_IqUX4lt3kt-38">
          <mxGeometry width="50" height="50" relative="1" as="geometry">
            <mxPoint x="390" y="420" as="sourcePoint" />
            <mxPoint x="128" y="310" as="targetPoint" />
          </mxGeometry>
        </mxCell>
        <mxCell id="JlkBKZ5nJkcB0ZHgIWBK-36" value="" style="endArrow=classic;html=1;rounded=0;exitX=0.5;exitY=1;exitDx=0;exitDy=0;entryX=0.881;entryY=0.005;entryDx=0;entryDy=0;entryPerimeter=0;" edge="1" parent="1" target="JlkBKZ5nJkcB0ZHgIWBK-1">
          <mxGeometry width="50" height="50" relative="1" as="geometry">
            <mxPoint x="691" y="270" as="sourcePoint" />
            <mxPoint x="690" y="310" as="targetPoint" />
          </mxGeometry>
        </mxCell>
        <mxCell id="JlkBKZ5nJkcB0ZHgIWBK-38" value="Partition Global Graph" style="text;html=1;strokeColor=none;fillColor=none;align=center;verticalAlign=middle;whiteSpace=wrap;rounded=0;" vertex="1" parent="1">
          <mxGeometry x="40" y="360" width="130" height="30" as="geometry" />
        </mxCell>
        <mxCell id="JlkBKZ5nJkcB0ZHgIWBK-39" value="" style="endArrow=classic;html=1;rounded=0;exitX=0.5;exitY=1;exitDx=0;exitDy=0;entryX=0.5;entryY=0;entryDx=0;entryDy=0;" edge="1" parent="1" source="JlkBKZ5nJkcB0ZHgIWBK-1" target="JlkBKZ5nJkcB0ZHgIWBK-37">
          <mxGeometry width="50" height="50" relative="1" as="geometry">
            <mxPoint x="410" y="400" as="sourcePoint" />
            <mxPoint x="460" y="350" as="targetPoint" />
          </mxGeometry>
        </mxCell>
        <mxCell id="JlkBKZ5nJkcB0ZHgIWBK-40" value="" style="rounded=1;whiteSpace=wrap;html=1;glass=0;arcSize=6;fillColor=#F9F3F8;strokeColor=#36393d;" vertex="1" parent="1">
          <mxGeometry x="40" y="610" width="740" height="110" as="geometry" />
        </mxCell>
        <mxCell id="JlkBKZ5nJkcB0ZHgIWBK-41" value="Account Allocation Table" style="text;html=1;strokeColor=none;fillColor=none;align=center;verticalAlign=middle;whiteSpace=wrap;rounded=0;" vertex="1" parent="1">
          <mxGeometry x="40" y="610" width="140" height="30" as="geometry" />
        </mxCell>
        <mxCell id="JlkBKZ5nJkcB0ZHgIWBK-73" value="" style="childLayout=tableLayout;recursiveResize=0;shadow=0;fillColor=none;" vertex="1" parent="1">
          <mxGeometry x="50" y="640" width="720" height="70" as="geometry" />
        </mxCell>
        <mxCell id="JlkBKZ5nJkcB0ZHgIWBK-74" value="" style="shape=tableRow;horizontal=0;startSize=0;swimlaneHead=0;swimlaneBody=0;top=0;left=0;bottom=0;right=0;dropTarget=0;collapsible=0;recursiveResize=0;expand=0;fontStyle=0;fillColor=none;strokeColor=inherit;" vertex="1" parent="JlkBKZ5nJkcB0ZHgIWBK-73">
          <mxGeometry width="720" height="35" as="geometry" />
        </mxCell>
        <mxCell id="JlkBKZ5nJkcB0ZHgIWBK-75" value="Address" style="connectable=0;recursiveResize=0;strokeColor=inherit;fillColor=none;align=center;whiteSpace=wrap;html=1;" vertex="1" parent="JlkBKZ5nJkcB0ZHgIWBK-74">
          <mxGeometry width="60" height="35" as="geometry">
            <mxRectangle width="60" height="35" as="alternateBounds" />
          </mxGeometry>
        </mxCell>
        <mxCell id="JlkBKZ5nJkcB0ZHgIWBK-76" value="0x0a14" style="connectable=0;recursiveResize=0;strokeColor=#000000;fillColor=#f8cecc;align=center;whiteSpace=wrap;html=1;" vertex="1" parent="JlkBKZ5nJkcB0ZHgIWBK-74">
          <mxGeometry x="60" width="60" height="35" as="geometry">
            <mxRectangle width="60" height="35" as="alternateBounds" />
          </mxGeometry>
        </mxCell>
        <mxCell id="JlkBKZ5nJkcB0ZHgIWBK-77" value="0xa24e" style="connectable=0;recursiveResize=0;strokeColor=#000000;fillColor=#fff2cc;align=center;whiteSpace=wrap;html=1;" vertex="1" parent="JlkBKZ5nJkcB0ZHgIWBK-74">
          <mxGeometry x="120" width="60" height="35" as="geometry">
            <mxRectangle width="60" height="35" as="alternateBounds" />
          </mxGeometry>
        </mxCell>
        <mxCell id="JlkBKZ5nJkcB0ZHgIWBK-86" value="0x432b" style="connectable=0;recursiveResize=0;strokeColor=#000000;fillColor=#fff2cc;align=center;whiteSpace=wrap;html=1;" vertex="1" parent="JlkBKZ5nJkcB0ZHgIWBK-74">
          <mxGeometry x="180" width="60" height="35" as="geometry">
            <mxRectangle width="60" height="35" as="alternateBounds" />
          </mxGeometry>
        </mxCell>
        <mxCell id="JlkBKZ5nJkcB0ZHgIWBK-88" value="0x5482" style="connectable=0;recursiveResize=0;strokeColor=#000000;fillColor=#d5e8d4;align=center;whiteSpace=wrap;html=1;" vertex="1" parent="JlkBKZ5nJkcB0ZHgIWBK-74">
          <mxGeometry x="240" width="60" height="35" as="geometry">
            <mxRectangle width="60" height="35" as="alternateBounds" />
          </mxGeometry>
        </mxCell>
        <mxCell id="JlkBKZ5nJkcB0ZHgIWBK-90" value="0x134c" style="connectable=0;recursiveResize=0;strokeColor=#000000;fillColor=#dae8fc;align=center;whiteSpace=wrap;html=1;" vertex="1" parent="JlkBKZ5nJkcB0ZHgIWBK-74">
          <mxGeometry x="300" width="60" height="35" as="geometry">
            <mxRectangle width="60" height="35" as="alternateBounds" />
          </mxGeometry>
        </mxCell>
        <mxCell id="JlkBKZ5nJkcB0ZHgIWBK-92" value="0xf235" style="connectable=0;recursiveResize=0;strokeColor=#000000;fillColor=#dae8fc;align=center;whiteSpace=wrap;html=1;" vertex="1" parent="JlkBKZ5nJkcB0ZHgIWBK-74">
          <mxGeometry x="360" width="60" height="35" as="geometry">
            <mxRectangle width="60" height="35" as="alternateBounds" />
          </mxGeometry>
        </mxCell>
        <mxCell id="JlkBKZ5nJkcB0ZHgIWBK-94" value="..." style="connectable=0;recursiveResize=0;strokeColor=inherit;fillColor=none;align=center;whiteSpace=wrap;html=1;" vertex="1" parent="JlkBKZ5nJkcB0ZHgIWBK-74">
          <mxGeometry x="420" width="60" height="35" as="geometry">
            <mxRectangle width="60" height="35" as="alternateBounds" />
          </mxGeometry>
        </mxCell>
        <mxCell id="JlkBKZ5nJkcB0ZHgIWBK-96" value="..." style="connectable=0;recursiveResize=0;strokeColor=inherit;fillColor=none;align=center;whiteSpace=wrap;html=1;" vertex="1" parent="JlkBKZ5nJkcB0ZHgIWBK-74">
          <mxGeometry x="480" width="60" height="35" as="geometry">
            <mxRectangle width="60" height="35" as="alternateBounds" />
          </mxGeometry>
        </mxCell>
        <mxCell id="JlkBKZ5nJkcB0ZHgIWBK-98" value="0xd578" style="connectable=0;recursiveResize=0;strokeColor=#000000;fillColor=#fff2cc;align=center;whiteSpace=wrap;html=1;" vertex="1" parent="JlkBKZ5nJkcB0ZHgIWBK-74">
          <mxGeometry x="540" width="60" height="35" as="geometry">
            <mxRectangle width="60" height="35" as="alternateBounds" />
          </mxGeometry>
        </mxCell>
        <mxCell id="JlkBKZ5nJkcB0ZHgIWBK-100" value="0x4eab" style="connectable=0;recursiveResize=0;strokeColor=#000000;fillColor=#f8cecc;align=center;whiteSpace=wrap;html=1;" vertex="1" parent="JlkBKZ5nJkcB0ZHgIWBK-74">
          <mxGeometry x="600" width="60" height="35" as="geometry">
            <mxRectangle width="60" height="35" as="alternateBounds" />
          </mxGeometry>
        </mxCell>
        <mxCell id="JlkBKZ5nJkcB0ZHgIWBK-102" value="0x3986" style="connectable=0;recursiveResize=0;strokeColor=#000000;fillColor=#d5e8d4;align=center;whiteSpace=wrap;html=1;" vertex="1" parent="JlkBKZ5nJkcB0ZHgIWBK-74">
          <mxGeometry x="660" width="60" height="35" as="geometry">
            <mxRectangle width="60" height="35" as="alternateBounds" />
          </mxGeometry>
        </mxCell>
        <mxCell id="JlkBKZ5nJkcB0ZHgIWBK-78" style="shape=tableRow;horizontal=0;startSize=0;swimlaneHead=0;swimlaneBody=0;top=0;left=0;bottom=0;right=0;dropTarget=0;collapsible=0;recursiveResize=0;expand=0;fontStyle=0;fillColor=none;strokeColor=inherit;" vertex="1" parent="JlkBKZ5nJkcB0ZHgIWBK-73">
          <mxGeometry y="35" width="720" height="35" as="geometry" />
        </mxCell>
        <mxCell id="JlkBKZ5nJkcB0ZHgIWBK-79" value="Shard" style="connectable=0;recursiveResize=0;strokeColor=inherit;fillColor=none;align=center;whiteSpace=wrap;html=1;" vertex="1" parent="JlkBKZ5nJkcB0ZHgIWBK-78">
          <mxGeometry width="60" height="35" as="geometry">
            <mxRectangle width="60" height="35" as="alternateBounds" />
          </mxGeometry>
        </mxCell>
        <mxCell id="JlkBKZ5nJkcB0ZHgIWBK-80" value="2" style="connectable=0;recursiveResize=0;strokeColor=#000000;fillColor=#f8cecc;align=center;whiteSpace=wrap;html=1;" vertex="1" parent="JlkBKZ5nJkcB0ZHgIWBK-78">
          <mxGeometry x="60" width="60" height="35" as="geometry">
            <mxRectangle width="60" height="35" as="alternateBounds" />
          </mxGeometry>
        </mxCell>
        <mxCell id="JlkBKZ5nJkcB0ZHgIWBK-81" value="1" style="connectable=0;recursiveResize=0;strokeColor=#000000;fillColor=#fff2cc;align=center;whiteSpace=wrap;html=1;" vertex="1" parent="JlkBKZ5nJkcB0ZHgIWBK-78">
          <mxGeometry x="120" width="60" height="35" as="geometry">
            <mxRectangle width="60" height="35" as="alternateBounds" />
          </mxGeometry>
        </mxCell>
        <mxCell id="JlkBKZ5nJkcB0ZHgIWBK-87" value="1" style="connectable=0;recursiveResize=0;strokeColor=#000000;fillColor=#fff2cc;align=center;whiteSpace=wrap;html=1;" vertex="1" parent="JlkBKZ5nJkcB0ZHgIWBK-78">
          <mxGeometry x="180" width="60" height="35" as="geometry">
            <mxRectangle width="60" height="35" as="alternateBounds" />
          </mxGeometry>
        </mxCell>
        <mxCell id="JlkBKZ5nJkcB0ZHgIWBK-89" value="0" style="connectable=0;recursiveResize=0;strokeColor=#000000;fillColor=#d5e8d4;align=center;whiteSpace=wrap;html=1;" vertex="1" parent="JlkBKZ5nJkcB0ZHgIWBK-78">
          <mxGeometry x="240" width="60" height="35" as="geometry">
            <mxRectangle width="60" height="35" as="alternateBounds" />
          </mxGeometry>
        </mxCell>
        <mxCell id="JlkBKZ5nJkcB0ZHgIWBK-91" value="3" style="connectable=0;recursiveResize=0;strokeColor=#000000;fillColor=#dae8fc;align=center;whiteSpace=wrap;html=1;" vertex="1" parent="JlkBKZ5nJkcB0ZHgIWBK-78">
          <mxGeometry x="300" width="60" height="35" as="geometry">
            <mxRectangle width="60" height="35" as="alternateBounds" />
          </mxGeometry>
        </mxCell>
        <mxCell id="JlkBKZ5nJkcB0ZHgIWBK-93" value="3" style="connectable=0;recursiveResize=0;strokeColor=#000000;fillColor=#dae8fc;align=center;whiteSpace=wrap;html=1;" vertex="1" parent="JlkBKZ5nJkcB0ZHgIWBK-78">
          <mxGeometry x="360" width="60" height="35" as="geometry">
            <mxRectangle width="60" height="35" as="alternateBounds" />
          </mxGeometry>
        </mxCell>
        <mxCell id="JlkBKZ5nJkcB0ZHgIWBK-95" value="..." style="connectable=0;recursiveResize=0;strokeColor=inherit;fillColor=none;align=center;whiteSpace=wrap;html=1;" vertex="1" parent="JlkBKZ5nJkcB0ZHgIWBK-78">
          <mxGeometry x="420" width="60" height="35" as="geometry">
            <mxRectangle width="60" height="35" as="alternateBounds" />
          </mxGeometry>
        </mxCell>
        <mxCell id="JlkBKZ5nJkcB0ZHgIWBK-97" value="..." style="connectable=0;recursiveResize=0;strokeColor=inherit;fillColor=none;align=center;whiteSpace=wrap;html=1;" vertex="1" parent="JlkBKZ5nJkcB0ZHgIWBK-78">
          <mxGeometry x="480" width="60" height="35" as="geometry">
            <mxRectangle width="60" height="35" as="alternateBounds" />
          </mxGeometry>
        </mxCell>
        <mxCell id="JlkBKZ5nJkcB0ZHgIWBK-99" value="1" style="connectable=0;recursiveResize=0;strokeColor=#000000;fillColor=#fff2cc;align=center;whiteSpace=wrap;html=1;" vertex="1" parent="JlkBKZ5nJkcB0ZHgIWBK-78">
          <mxGeometry x="540" width="60" height="35" as="geometry">
            <mxRectangle width="60" height="35" as="alternateBounds" />
          </mxGeometry>
        </mxCell>
        <mxCell id="JlkBKZ5nJkcB0ZHgIWBK-101" value="2" style="connectable=0;recursiveResize=0;strokeColor=#000000;fillColor=#f8cecc;align=center;whiteSpace=wrap;html=1;" vertex="1" parent="JlkBKZ5nJkcB0ZHgIWBK-78">
          <mxGeometry x="600" width="60" height="35" as="geometry">
            <mxRectangle width="60" height="35" as="alternateBounds" />
          </mxGeometry>
        </mxCell>
        <mxCell id="JlkBKZ5nJkcB0ZHgIWBK-103" value="0" style="connectable=0;recursiveResize=0;strokeColor=#000000;fillColor=#d5e8d4;align=center;whiteSpace=wrap;html=1;" vertex="1" parent="JlkBKZ5nJkcB0ZHgIWBK-78">
          <mxGeometry x="660" width="60" height="35" as="geometry">
            <mxRectangle width="60" height="35" as="alternateBounds" />
          </mxGeometry>
        </mxCell>
        <mxCell id="JlkBKZ5nJkcB0ZHgIWBK-105" value="" style="endArrow=classic;html=1;rounded=0;exitX=0.5;exitY=1;exitDx=0;exitDy=0;entryX=0.5;entryY=0;entryDx=0;entryDy=0;" edge="1" parent="1">
          <mxGeometry width="50" height="50" relative="1" as="geometry">
            <mxPoint x="413" y="590" as="sourcePoint" />
            <mxPoint x="413" y="610" as="targetPoint" />
          </mxGeometry>
        </mxCell>
        <mxCell id="JlkBKZ5nJkcB0ZHgIWBK-142" value="Broadcast" style="text;html=1;strokeColor=none;fillColor=none;align=center;verticalAlign=middle;whiteSpace=wrap;rounded=0;" vertex="1" parent="1">
          <mxGeometry x="140" y="280" width="40" height="30" as="geometry" />
        </mxCell>
        <mxCell id="JlkBKZ5nJkcB0ZHgIWBK-143" value="Broadcast" style="text;html=1;strokeColor=none;fillColor=none;align=center;verticalAlign=middle;whiteSpace=wrap;rounded=0;" vertex="1" parent="1">
          <mxGeometry x="360" y="280" width="40" height="30" as="geometry" />
        </mxCell>
        <mxCell id="IGg1r8K_b_IqUX4lt3kt-237" value="" style="rounded=1;whiteSpace=wrap;html=1;arcSize=5;fillColor=#F0FCFF;strokeColor=#36393d;" parent="1" vertex="1">
          <mxGeometry x="590" y="120" width="190" height="160" as="geometry" />
        </mxCell>
        <mxCell id="IGg1r8K_b_IqUX4lt3kt-238" value="" style="group" parent="1" vertex="1" connectable="0">
          <mxGeometry x="620" y="180" width="154.45" height="90" as="geometry" />
        </mxCell>
        <mxCell id="IGg1r8K_b_IqUX4lt3kt-239" value="" style="ellipse;whiteSpace=wrap;html=1;" parent="IGg1r8K_b_IqUX4lt3kt-238" vertex="1">
          <mxGeometry width="130" height="90" as="geometry" />
        </mxCell>
        <mxCell id="IGg1r8K_b_IqUX4lt3kt-240" value="" style="ellipse;whiteSpace=wrap;html=1;aspect=fixed;fillColor=#dae8fc;strokeColor=#6c8ebf;" parent="IGg1r8K_b_IqUX4lt3kt-238" vertex="1">
          <mxGeometry x="59.583333333333336" y="5.625" width="10.227272727272728" height="10.227272727272728" as="geometry" />
        </mxCell>
        <mxCell id="IGg1r8K_b_IqUX4lt3kt-241" value="" style="ellipse;whiteSpace=wrap;html=1;aspect=fixed;fillColor=#dae8fc;strokeColor=#6c8ebf;" parent="IGg1r8K_b_IqUX4lt3kt-238" vertex="1">
          <mxGeometry x="86.66666666666667" y="11.25" width="10.227272727272728" height="10.227272727272728" as="geometry" />
        </mxCell>
        <mxCell id="IGg1r8K_b_IqUX4lt3kt-243" value="" style="ellipse;whiteSpace=wrap;html=1;aspect=fixed;fillColor=#f8cecc;strokeColor=#b85450;" parent="IGg1r8K_b_IqUX4lt3kt-238" vertex="1">
          <mxGeometry x="113.75" y="45" width="10.227272727272728" height="10.227272727272728" as="geometry" />
        </mxCell>
        <mxCell id="IGg1r8K_b_IqUX4lt3kt-244" value="" style="ellipse;whiteSpace=wrap;html=1;aspect=fixed;fillColor=#dae8fc;strokeColor=#6c8ebf;" parent="IGg1r8K_b_IqUX4lt3kt-238" vertex="1">
          <mxGeometry x="27.083333333333336" y="67.5" width="10.227272727272728" height="10.227272727272728" as="geometry" />
        </mxCell>
        <mxCell id="IGg1r8K_b_IqUX4lt3kt-245" value="" style="ellipse;whiteSpace=wrap;html=1;aspect=fixed;fillColor=#ffe6cc;strokeColor=#d79b00;" parent="IGg1r8K_b_IqUX4lt3kt-238" vertex="1">
          <mxGeometry x="16.25" y="22.5" width="10.227272727272728" height="10.227272727272728" as="geometry" />
        </mxCell>
        <mxCell id="IGg1r8K_b_IqUX4lt3kt-246" value="" style="endArrow=none;html=1;rounded=0;exitX=0.933;exitY=0.253;exitDx=0;exitDy=0;entryX=0.031;entryY=0.628;entryDx=0;entryDy=0;exitPerimeter=0;entryPerimeter=0;dashed=1;" parent="IGg1r8K_b_IqUX4lt3kt-238" source="IGg1r8K_b_IqUX4lt3kt-245" target="IGg1r8K_b_IqUX4lt3kt-240" edge="1">
          <mxGeometry width="50" height="50" relative="1" as="geometry">
            <mxPoint x="54.16666666666667" y="56.25" as="sourcePoint" />
            <mxPoint x="81.25" y="28.125" as="targetPoint" />
          </mxGeometry>
        </mxCell>
        <mxCell id="IGg1r8K_b_IqUX4lt3kt-247" value="" style="endArrow=none;html=1;rounded=0;exitX=0.669;exitY=0.947;exitDx=0;exitDy=0;exitPerimeter=0;dashed=1;" parent="IGg1r8K_b_IqUX4lt3kt-238" source="IGg1r8K_b_IqUX4lt3kt-245" target="IGg1r8K_b_IqUX4lt3kt-244" edge="1">
          <mxGeometry width="50" height="50" relative="1" as="geometry">
            <mxPoint x="32.5" y="45" as="sourcePoint" />
            <mxPoint x="66.625" y="32.0625" as="targetPoint" />
          </mxGeometry>
        </mxCell>
        <mxCell id="IGg1r8K_b_IqUX4lt3kt-251" value="" style="endArrow=none;html=1;rounded=0;exitX=0;exitY=1;exitDx=0;exitDy=0;entryX=1;entryY=0;entryDx=0;entryDy=0;" parent="IGg1r8K_b_IqUX4lt3kt-238" source="IGg1r8K_b_IqUX4lt3kt-241" target="IGg1r8K_b_IqUX4lt3kt-244" edge="1">
          <mxGeometry width="50" height="50" relative="1" as="geometry">
            <mxPoint x="119.16666666666667" y="54.5625" as="sourcePoint" />
            <mxPoint x="31.958333333333336" y="36" as="targetPoint" />
          </mxGeometry>
        </mxCell>
        <mxCell id="IGg1r8K_b_IqUX4lt3kt-252" value="" style="endArrow=none;html=1;rounded=0;exitX=0;exitY=0;exitDx=0;exitDy=0;entryX=1;entryY=1;entryDx=0;entryDy=0;dashed=1;" parent="IGg1r8K_b_IqUX4lt3kt-238" source="IGg1r8K_b_IqUX4lt3kt-243" target="IGg1r8K_b_IqUX4lt3kt-240" edge="1">
          <mxGeometry width="50" height="50" relative="1" as="geometry">
            <mxPoint x="93.70833333333334" y="26.4375" as="sourcePoint" />
            <mxPoint x="41.16666666666667" y="73.6875" as="targetPoint" />
          </mxGeometry>
        </mxCell>
        <mxCell id="IGg1r8K_b_IqUX4lt3kt-253" value="" style="endArrow=none;html=1;rounded=0;exitX=0.294;exitY=0.058;exitDx=0;exitDy=0;exitPerimeter=0;entryX=1;entryY=1;entryDx=0;entryDy=0;dashed=1;" parent="IGg1r8K_b_IqUX4lt3kt-238" source="IGg1r8K_b_IqUX4lt3kt-243" target="IGg1r8K_b_IqUX4lt3kt-241" edge="1">
          <mxGeometry width="50" height="50" relative="1" as="geometry">
            <mxPoint x="119.16666666666667" y="54.5625" as="sourcePoint" />
            <mxPoint x="31.958333333333336" y="36" as="targetPoint" />
          </mxGeometry>
        </mxCell>
        <mxCell id="IGg1r8K_b_IqUX4lt3kt-254" value="" style="endArrow=none;html=1;rounded=0;exitX=0.031;exitY=0.739;exitDx=0;exitDy=0;exitPerimeter=0;entryX=1;entryY=0.5;entryDx=0;entryDy=0;dashed=1;" parent="IGg1r8K_b_IqUX4lt3kt-238" source="IGg1r8K_b_IqUX4lt3kt-243" target="IGg1r8K_b_IqUX4lt3kt-244" edge="1">
          <mxGeometry width="50" height="50" relative="1" as="geometry">
            <mxPoint x="122.41666666666667" y="51.1875" as="sourcePoint" />
            <mxPoint x="79.19242424242452" y="65.7409090909091" as="targetPoint" />
          </mxGeometry>
        </mxCell>
        <mxCell id="IGg1r8K_b_IqUX4lt3kt-278" value="" style="endArrow=none;html=1;rounded=0;exitX=0;exitY=0.5;exitDx=0;exitDy=0;entryX=1;entryY=0.5;entryDx=0;entryDy=0;dashed=1;" parent="IGg1r8K_b_IqUX4lt3kt-238" source="IGg1r8K_b_IqUX4lt3kt-241" target="IGg1r8K_b_IqUX4lt3kt-245" edge="1">
          <mxGeometry width="50" height="50" relative="1" as="geometry">
            <mxPoint x="-100" y="60" as="sourcePoint" />
            <mxPoint x="-50" y="10" as="targetPoint" />
          </mxGeometry>
        </mxCell>
        <mxCell id="JlkBKZ5nJkcB0ZHgIWBK-150" value="" style="endArrow=none;html=1;rounded=0;exitX=0;exitY=1;exitDx=0;exitDy=0;entryX=0.5;entryY=0;entryDx=0;entryDy=0;" edge="1" parent="IGg1r8K_b_IqUX4lt3kt-238" source="IGg1r8K_b_IqUX4lt3kt-240" target="IGg1r8K_b_IqUX4lt3kt-244">
          <mxGeometry width="50" height="50" relative="1" as="geometry">
            <mxPoint x="98" y="30" as="sourcePoint" />
            <mxPoint x="45" y="78" as="targetPoint" />
          </mxGeometry>
        </mxCell>
        <mxCell id="IGg1r8K_b_IqUX4lt3kt-255" value="" style="endArrow=none;dashed=1;html=1;rounded=0;exitX=0;exitY=0.5;exitDx=0;exitDy=0;entryX=0;entryY=1;entryDx=0;entryDy=0;" parent="1" source="IGg1r8K_b_IqUX4lt3kt-239" target="IGg1r8K_b_IqUX4lt3kt-258" edge="1">
          <mxGeometry width="50" height="50" relative="1" as="geometry">
            <mxPoint x="460" y="180" as="sourcePoint" />
            <mxPoint x="510" y="130" as="targetPoint" />
          </mxGeometry>
        </mxCell>
        <mxCell id="IGg1r8K_b_IqUX4lt3kt-256" value="" style="endArrow=none;dashed=1;html=1;rounded=0;exitX=0.997;exitY=0.58;exitDx=0;exitDy=0;exitPerimeter=0;entryX=1;entryY=1;entryDx=0;entryDy=0;" parent="1" source="IGg1r8K_b_IqUX4lt3kt-239" target="IGg1r8K_b_IqUX4lt3kt-258" edge="1">
          <mxGeometry width="50" height="50" relative="1" as="geometry">
            <mxPoint x="820" y="190" as="sourcePoint" />
            <mxPoint x="790" y="90" as="targetPoint" />
          </mxGeometry>
        </mxCell>
        <mxCell id="IGg1r8K_b_IqUX4lt3kt-257" value="" style="group" parent="1" vertex="1" connectable="0">
          <mxGeometry x="605" y="130" width="160" height="40" as="geometry" />
        </mxCell>
        <mxCell id="IGg1r8K_b_IqUX4lt3kt-258" value="" style="rounded=0;whiteSpace=wrap;html=1;" parent="IGg1r8K_b_IqUX4lt3kt-257" vertex="1">
          <mxGeometry width="160" height="40" as="geometry" />
        </mxCell>
        <mxCell id="JlkBKZ5nJkcB0ZHgIWBK-148" value="" style="group" vertex="1" connectable="0" parent="IGg1r8K_b_IqUX4lt3kt-257">
          <mxGeometry x="10" y="10" width="140" height="20" as="geometry" />
        </mxCell>
        <mxCell id="IGg1r8K_b_IqUX4lt3kt-260" value="" style="whiteSpace=wrap;html=1;aspect=fixed;fillColor=#dae8fc;strokeColor=#6c8ebf;container=0;" parent="JlkBKZ5nJkcB0ZHgIWBK-148" vertex="1">
          <mxGeometry width="20" height="20" as="geometry" />
        </mxCell>
        <mxCell id="IGg1r8K_b_IqUX4lt3kt-261" value="" style="whiteSpace=wrap;html=1;aspect=fixed;fillColor=#dae8fc;strokeColor=#6c8ebf;container=0;" parent="JlkBKZ5nJkcB0ZHgIWBK-148" vertex="1">
          <mxGeometry x="30" width="20" height="20" as="geometry" />
        </mxCell>
        <mxCell id="IGg1r8K_b_IqUX4lt3kt-262" value="" style="whiteSpace=wrap;html=1;aspect=fixed;fillColor=#dae8fc;strokeColor=#6c8ebf;container=0;" parent="JlkBKZ5nJkcB0ZHgIWBK-148" vertex="1">
          <mxGeometry x="60" width="20" height="20" as="geometry" />
        </mxCell>
        <mxCell id="IGg1r8K_b_IqUX4lt3kt-263" value="" style="whiteSpace=wrap;html=1;aspect=fixed;fillColor=#dae8fc;strokeColor=#6c8ebf;container=0;" parent="JlkBKZ5nJkcB0ZHgIWBK-148" vertex="1">
          <mxGeometry x="90" width="20" height="20" as="geometry" />
        </mxCell>
        <mxCell id="IGg1r8K_b_IqUX4lt3kt-264" value="" style="whiteSpace=wrap;html=1;aspect=fixed;fillColor=#dae8fc;strokeColor=#6c8ebf;container=0;" parent="JlkBKZ5nJkcB0ZHgIWBK-148" vertex="1">
          <mxGeometry x="120" width="20" height="20" as="geometry" />
        </mxCell>
        <mxCell id="IGg1r8K_b_IqUX4lt3kt-265" value="" style="endArrow=classic;html=1;rounded=0;exitX=1;exitY=0.5;exitDx=0;exitDy=0;entryX=0;entryY=0.5;entryDx=0;entryDy=0;strokeWidth=1;endSize=2;fillColor=#dae8fc;strokeColor=#6c8ebf;" parent="JlkBKZ5nJkcB0ZHgIWBK-148" source="IGg1r8K_b_IqUX4lt3kt-260" target="IGg1r8K_b_IqUX4lt3kt-261" edge="1">
          <mxGeometry width="50" height="50" relative="1" as="geometry">
            <mxPoint x="22" y="90" as="sourcePoint" />
            <mxPoint x="72" y="40" as="targetPoint" />
          </mxGeometry>
        </mxCell>
        <mxCell id="IGg1r8K_b_IqUX4lt3kt-266" value="" style="endArrow=classic;html=1;rounded=0;exitX=1;exitY=0.5;exitDx=0;exitDy=0;entryX=0;entryY=0.5;entryDx=0;entryDy=0;strokeWidth=1;endSize=2;fillColor=#dae8fc;strokeColor=#6c8ebf;" parent="JlkBKZ5nJkcB0ZHgIWBK-148" source="IGg1r8K_b_IqUX4lt3kt-261" target="IGg1r8K_b_IqUX4lt3kt-262" edge="1">
          <mxGeometry width="50" height="50" relative="1" as="geometry">
            <mxPoint x="30" y="20" as="sourcePoint" />
            <mxPoint x="40" y="20" as="targetPoint" />
          </mxGeometry>
        </mxCell>
        <mxCell id="IGg1r8K_b_IqUX4lt3kt-267" value="" style="endArrow=classic;html=1;rounded=0;exitX=1;exitY=0.5;exitDx=0;exitDy=0;entryX=0;entryY=0.5;entryDx=0;entryDy=0;strokeWidth=1;endSize=2;fillColor=#dae8fc;strokeColor=#6c8ebf;" parent="JlkBKZ5nJkcB0ZHgIWBK-148" source="IGg1r8K_b_IqUX4lt3kt-262" target="IGg1r8K_b_IqUX4lt3kt-263" edge="1">
          <mxGeometry width="50" height="50" relative="1" as="geometry">
            <mxPoint x="60" y="20" as="sourcePoint" />
            <mxPoint x="70" y="20" as="targetPoint" />
          </mxGeometry>
        </mxCell>
        <mxCell id="IGg1r8K_b_IqUX4lt3kt-268" value="" style="endArrow=classic;html=1;rounded=0;exitX=1;exitY=0.5;exitDx=0;exitDy=0;entryX=0;entryY=0.5;entryDx=0;entryDy=0;strokeWidth=1;endSize=2;fillColor=#dae8fc;strokeColor=#6c8ebf;" parent="JlkBKZ5nJkcB0ZHgIWBK-148" source="IGg1r8K_b_IqUX4lt3kt-263" target="IGg1r8K_b_IqUX4lt3kt-264" edge="1">
          <mxGeometry width="50" height="50" relative="1" as="geometry">
            <mxPoint x="90" y="20" as="sourcePoint" />
            <mxPoint x="100" y="20" as="targetPoint" />
          </mxGeometry>
        </mxCell>
        <mxCell id="JlkBKZ5nJkcB0ZHgIWBK-141" value="&lt;p style=&quot;font-size: 11px;&quot;&gt;&lt;font style=&quot;font-size: 11px;&quot;&gt;Shard K-1&lt;/font&gt;&lt;/p&gt;" style="text;html=1;strokeColor=none;fillColor=none;align=center;verticalAlign=middle;whiteSpace=wrap;rounded=0;fontSize=10;" vertex="1" parent="1">
          <mxGeometry x="713" y="260" width="70" height="20" as="geometry" />
        </mxCell>
        <mxCell id="JlkBKZ5nJkcB0ZHgIWBK-144" value="Broadcast" style="text;html=1;strokeColor=none;fillColor=none;align=center;verticalAlign=middle;whiteSpace=wrap;rounded=0;" vertex="1" parent="1">
          <mxGeometry x="710" y="280" width="40" height="30" as="geometry" />
        </mxCell>
        <mxCell id="JlkBKZ5nJkcB0ZHgIWBK-195" value="" style="whiteSpace=wrap;html=1;aspect=fixed;fillColor=#d5e8d4;strokeColor=#82b366;" vertex="1" parent="1">
          <mxGeometry x="47" y="731" width="20" height="20" as="geometry" />
        </mxCell>
        <mxCell id="JlkBKZ5nJkcB0ZHgIWBK-196" value="" style="whiteSpace=wrap;html=1;aspect=fixed;fillColor=#ffe6cc;strokeColor=#d79b00;" vertex="1" parent="1">
          <mxGeometry x="73" y="731" width="20" height="20" as="geometry" />
        </mxCell>
        <mxCell id="JlkBKZ5nJkcB0ZHgIWBK-197" value="" style="whiteSpace=wrap;html=1;aspect=fixed;fillColor=#dae8fc;strokeColor=#6c8ebf;container=0;" vertex="1" parent="1">
          <mxGeometry x="114" y="731" width="20" height="20" as="geometry" />
        </mxCell>
        <mxCell id="JlkBKZ5nJkcB0ZHgIWBK-198" value=": Shard Block" style="text;html=1;strokeColor=none;fillColor=none;align=center;verticalAlign=middle;whiteSpace=wrap;rounded=0;" vertex="1" parent="1">
          <mxGeometry x="130" y="731" width="88" height="21" as="geometry" />
        </mxCell>
        <mxCell id="JlkBKZ5nJkcB0ZHgIWBK-199" value="" style="ellipse;whiteSpace=wrap;html=1;aspect=fixed;fillColor=#f8cecc;strokeColor=#b85450;" vertex="1" parent="1">
          <mxGeometry x="239" y="735" width="10.227272727272728" height="10.227272727272728" as="geometry" />
        </mxCell>
        <mxCell id="JlkBKZ5nJkcB0ZHgIWBK-200" value="" style="ellipse;whiteSpace=wrap;html=1;aspect=fixed;fillColor=#d5e8d4;strokeColor=#82b366;" vertex="1" parent="1">
          <mxGeometry x="253.00333333333333" y="735.005" width="10.227272727272728" height="10.227272727272728" as="geometry" />
        </mxCell>
        <mxCell id="JlkBKZ5nJkcB0ZHgIWBK-201" value="" style="ellipse;whiteSpace=wrap;html=1;aspect=fixed;fillColor=#dae8fc;strokeColor=#6c8ebf;" vertex="1" parent="1">
          <mxGeometry x="267" y="735" width="10.227272727272728" height="10.227272727272728" as="geometry" />
        </mxCell>
        <mxCell id="JlkBKZ5nJkcB0ZHgIWBK-202" value="" style="ellipse;whiteSpace=wrap;html=1;aspect=fixed;fillColor=#ffe6cc;strokeColor=#d79b00;" vertex="1" parent="1">
          <mxGeometry x="281.00333333333333" y="735.005" width="10.227272727272728" height="10.227272727272728" as="geometry" />
        </mxCell>
        <mxCell id="JlkBKZ5nJkcB0ZHgIWBK-203" value=": Account Address" style="text;html=1;strokeColor=none;fillColor=none;align=center;verticalAlign=middle;whiteSpace=wrap;rounded=0;" vertex="1" parent="1">
          <mxGeometry x="294" y="730" width="100" height="21" as="geometry" />
        </mxCell>
        <mxCell id="JlkBKZ5nJkcB0ZHgIWBK-204" value="" style="ellipse;whiteSpace=wrap;html=1;aspect=fixed;fillColor=#d5e8d4;strokeColor=#82b366;" vertex="1" parent="1">
          <mxGeometry x="465.75666666666666" y="736.39" width="10.227272727272728" height="10.227272727272728" as="geometry" />
        </mxCell>
        <mxCell id="JlkBKZ5nJkcB0ZHgIWBK-205" value="" style="ellipse;whiteSpace=wrap;html=1;aspect=fixed;fillColor=#d5e8d4;strokeColor=#82b366;" vertex="1" parent="1">
          <mxGeometry x="421.00333333333333" y="736.39" width="10.227272727272728" height="10.227272727272728" as="geometry" />
        </mxCell>
        <mxCell id="JlkBKZ5nJkcB0ZHgIWBK-206" value="" style="endArrow=none;html=1;rounded=0;exitX=0;exitY=0.5;exitDx=0;exitDy=0;entryX=1;entryY=0.5;entryDx=0;entryDy=0;" edge="1" parent="1" source="JlkBKZ5nJkcB0ZHgIWBK-204" target="JlkBKZ5nJkcB0ZHgIWBK-205">
          <mxGeometry width="50" height="50" relative="1" as="geometry">
            <mxPoint x="491.92666666666673" y="733.6725" as="sourcePoint" />
            <mxPoint x="404.71833333333336" y="715.11" as="targetPoint" />
          </mxGeometry>
        </mxCell>
        <mxCell id="JlkBKZ5nJkcB0ZHgIWBK-207" value=": Inner-shard Edge" style="text;html=1;strokeColor=none;fillColor=none;align=center;verticalAlign=middle;whiteSpace=wrap;rounded=0;" vertex="1" parent="1">
          <mxGeometry x="474.98" y="731" width="110" height="21" as="geometry" />
        </mxCell>
        <mxCell id="JlkBKZ5nJkcB0ZHgIWBK-208" value="" style="ellipse;whiteSpace=wrap;html=1;aspect=fixed;fillColor=#d5e8d4;strokeColor=#82b366;" vertex="1" parent="1">
          <mxGeometry x="603" y="736.258" width="10.49568078979844" height="10.49568078979844" as="geometry" />
        </mxCell>
        <mxCell id="JlkBKZ5nJkcB0ZHgIWBK-209" value="" style="ellipse;whiteSpace=wrap;html=1;aspect=fixed;fillColor=#ffe6cc;strokeColor=#d79b00;" vertex="1" parent="1">
          <mxGeometry x="652.0036363636364" y="736.258" width="10.49568078979844" height="10.49568078979844" as="geometry" />
        </mxCell>
        <mxCell id="JlkBKZ5nJkcB0ZHgIWBK-210" value="" style="endArrow=none;html=1;rounded=0;exitX=1;exitY=0.5;exitDx=0;exitDy=0;entryX=0;entryY=0.5;entryDx=0;entryDy=0;dashed=1;" edge="1" parent="1" source="JlkBKZ5nJkcB0ZHgIWBK-208" target="JlkBKZ5nJkcB0ZHgIWBK-209">
          <mxGeometry width="50" height="50" relative="1" as="geometry">
            <mxPoint x="669.3854545454545" y="797.87" as="sourcePoint" />
            <mxPoint x="705.749090909091" y="767.87" as="targetPoint" />
          </mxGeometry>
        </mxCell>
        <mxCell id="JlkBKZ5nJkcB0ZHgIWBK-213" value=": Cross-shard Edge" style="text;html=1;strokeColor=none;fillColor=none;align=center;verticalAlign=middle;whiteSpace=wrap;rounded=0;" vertex="1" parent="1">
          <mxGeometry x="664" y="731.01" width="115" height="21" as="geometry" />
        </mxCell>
        <mxCell id="JlkBKZ5nJkcB0ZHgIWBK-215" style="edgeStyle=orthogonalEdgeStyle;rounded=0;orthogonalLoop=1;jettySize=auto;html=1;entryX=0.476;entryY=1.085;entryDx=0;entryDy=0;entryPerimeter=0;" edge="1" parent="1">
          <mxGeometry relative="1" as="geometry">
            <mxPoint x="103" y="746.39" as="sourcePoint" />
            <mxPoint x="103" y="746.39" as="targetPoint" />
          </mxGeometry>
        </mxCell>
        <mxCell id="JlkBKZ5nJkcB0ZHgIWBK-219" value="..." style="text;html=1;strokeColor=none;fillColor=none;align=center;verticalAlign=middle;whiteSpace=wrap;rounded=0;" vertex="1" parent="1">
          <mxGeometry x="91" y="734.23" width="26" height="11" as="geometry" />
        </mxCell>
      </root>
    </mxGraphModel>
  </diagram>
</mxfile>
